<?xml version="1.0" encoding="UTF-8"?>
<svg width="40px" height="40px" viewBox="0 0 40 40" version="1.1" xmlns="http://www.w3.org/2000/svg" xmlns:xlink="http://www.w3.org/1999/xlink">
    <!-- Generator: Sketch 53.2 (72643) - https://sketchapp.com -->
    <title>ads</title>
    <desc>Created with Sketch.</desc>
    <g id="Page-1" stroke="none" stroke-width="1" fill="none" fill-rule="evenodd">
        <g id="inhouse-LP-Copy-2" transform="translate(-553.000000, -2069.000000)">
            <g id="ads" transform="translate(553.000000, 2069.000000)">
                <circle id="Oval" fill="#2B2B2B" cx="20" cy="20" r="20"></circle>
                <g id="flaticon1573717564-svg" transform="translate(9.600000, 7.200000)" fill="#FFFFFF" fill-rule="nonzero">
                    <path d="M20.4876094,9.96459375 L11.1272344,0.602859375 C10.5751875,0.052171875 9.68217188,0.0586875 9.13734375,0.60215625 C8.58942188,1.15148437 8.58942188,2.04342187 9.13734375,2.59204687 L18.4990781,11.953125 C19.0475156,12.5015625 19.939125,12.5015625 20.4876094,11.953125 C21.0375469,11.4031875 21.0375469,10.5144375 20.4876094,9.96459375 Z" id="Path"></path>
                    <path d="M8.44289063,3.88617188 L8.3724375,4.23932813 C7.87617188,6.72173438 6.67007813,9.0800625 5.03878125,10.9914844 L10.1316094,16.0843125 C12.0427969,14.4533438 14.3686406,13.2148594 16.8511406,12.7179844 L17.2049531,12.6475313 L8.44289063,3.88617188 Z" id="Path"></path>
                    <path d="M4.10507812,12.0463594 L0.62446875,15.5262656 C-0.197953125,16.3486875 -0.201375,17.683875 0.62446875,18.5097188 L2.613,20.49825 C3.43542187,21.3206719 4.77060937,21.3240469 5.59645312,20.49825 L9.07673437,17.0179688 L4.10507812,12.0463594 Z M4.60223437,17.5155 C4.32759375,17.7901406 3.88260937,17.7901406 3.60796875,17.5155 C3.33332812,17.2408594 3.33332812,16.795875 3.60796875,16.5212344 L4.60223437,15.5269687 C4.876875,15.2523281 5.32185937,15.2523281 5.5965,15.5269687 C5.87114062,15.8016094 5.87114062,16.2465937 5.5965,16.5212344 L4.60223437,17.5155 Z" id="Shape"></path>
                    <path d="M12.0124688,20.8724063 L12.9689531,19.9159219 C13.7948438,19.0901719 13.792125,17.7549844 12.969,16.9332188 L12.2585625,16.2222656 C11.8658906,16.4860313 11.4908906,16.772625 11.1262969,17.0784375 L11.9747344,17.9281406 C12.2487188,18.2007188 12.2506406,18.6443438 11.9747344,18.9217031 L11.0024531,19.8939844 L9.57360937,18.509625 L7.58498437,20.49825 L10.7751562,23.5895156 C11.3195625,24.1353281 12.2134219,24.1384219 12.7629844,23.5888125 C13.3116094,23.0401875 13.3116094,22.14825 12.7629844,21.5995781 L12.0124688,20.8724063 Z" id="Path"></path>
                    <path d="M14.853,0 C14.4643594,0 14.149875,0.314484375 14.149875,0.703125 L14.149875,2.109375 C14.149875,2.49801562 14.4643594,2.8125 14.853,2.8125 C15.2416406,2.8125 15.556125,2.49801562 15.556125,2.109375 L15.556125,0.703125 C15.556125,0.314484375 15.2416406,0 14.853,0 Z" id="Path"></path>
                    <path d="M20.478,5.625 L19.07175,5.625 C18.6831094,5.625 18.368625,5.93948438 18.368625,6.328125 C18.368625,6.71676563 18.6831094,7.03125 19.07175,7.03125 L20.478,7.03125 C20.8666406,7.03125 21.181125,6.71676563 21.181125,6.328125 C21.181125,5.93948438 20.8666406,5.625 20.478,5.625 Z" id="Path"></path>
                    <path d="M19.5688594,1.61221875 C19.2942188,1.33757812 18.8492344,1.33757812 18.5745937,1.61221875 L17.1683437,3.01846875 C16.8937031,3.29310938 16.8937031,3.73809375 17.1683437,4.01273438 C17.4429844,4.287375 17.8879687,4.28742188 18.1626094,4.01273438 L19.5688594,2.60648438 C19.8435,2.33184375 19.8435,1.88685938 19.5688594,1.61221875 Z" id="Path"></path>
                </g>
            </g>
        </g>
    </g>
</svg>