<?xml version="1.0" encoding="UTF-8"?>
<svg width="40px" height="40px" viewBox="0 0 40 40" version="1.1" xmlns="http://www.w3.org/2000/svg" xmlns:xlink="http://www.w3.org/1999/xlink">
    <!-- Generator: Sketch 53.2 (72643) - https://sketchapp.com -->
    <title>email</title>
    <desc>Created with Sketch.</desc>
    <g id="Page-1" stroke="none" stroke-width="1" fill="none" fill-rule="evenodd">
        <g id="inhouse-LP-Copy-2" transform="translate(-192.000000, -2301.000000)">
            <g id="email" transform="translate(192.000000, 2301.000000)">
                <circle id="Oval" fill="#2B2B2B" cx="20" cy="20" r="20"></circle>
                <g id="flaticon1573719215-svg" transform="translate(8.000000, 11.200000)" fill="#FFFFFF" fill-rule="nonzero">
                    <path d="M12,12 L9.03085714,9.40114286 L0.541714286,16.6782857 C0.850285714,16.9645714 1.26685714,17.1428571 1.72628571,17.1428571 L22.2737143,17.1428571 C22.7314286,17.1428571 23.1462857,16.9645714 23.4531429,16.6782857 L14.9691429,9.40114286 L12,12 Z" id="Path"></path>
                    <path d="M23.4582857,0.464571429 C23.1497143,0.176571429 22.7348571,0 22.2737143,0 L1.72628571,0 C1.26857143,0 0.853714286,0.178285714 0.545142857,0.468 L12,10.2857143 L23.4582857,0.464571429 Z" id="Path"></path>
                    <polygon id="Path" points="0 1.50514286 0 15.7474286 8.28514286 8.70685714"></polygon>
                    <polygon id="Path" points="15.7148571 8.70685714 24 15.7474286 24 1.5"></polygon>
                </g>
            </g>
        </g>
    </g>
</svg>