<?xml version="1.0" encoding="UTF-8"?>
<svg width="40px" height="41px" viewBox="0 0 40 41" version="1.1" xmlns="http://www.w3.org/2000/svg" xmlns:xlink="http://www.w3.org/1999/xlink">
    <!-- Generator: Sketch 53.2 (72643) - https://sketchapp.com -->
    <title>g</title>
    <desc>Created with Sketch.</desc>
    <g id="Page-1" stroke="none" stroke-width="1" fill="none" fill-rule="evenodd">
        <g id="inhouse-LP-Copy-2" transform="translate(-322.000000, -2068.000000)" fill-rule="nonzero">
            <g id="g" transform="translate(322.000000, 2068.000000)">
                <ellipse id="XMLID_30_" fill="#2B2B2B" cx="19.8576991" cy="20.3104026" rx="19.8576991" ry="19.9550408"></ellipse>
                <g id="Group" transform="translate(6.725664, 12.805830)">
                    <path d="M0.187964602,8.39777893 C0.117522124,11.8311643 2.47079646,15.1076783 5.7079646,16.1762537 C8.75716814,17.2057002 12.5061947,16.4355718 14.5352212,13.8114437 C16.0166372,11.9727399 16.3532743,9.52149054 16.1929204,7.23138123 C13.5815929,7.20790387 10.9702655,7.21572965 8.36283186,7.21964255 C8.35858407,8.15446816 8.36283186,9.0857366 8.36672566,10.0205622 C9.93026549,10.0639597 11.4941593,10.0440396 13.0576991,10.0756984 C12.6630088,11.434895 11.7638938,12.6998265 10.399292,13.1907166 C7.76460177,14.3574701 4.40283186,12.8332205 3.57380531,10.0557782 C2.57309735,7.39607843 4.21132743,4.18643935 6.91610619,3.41275377 C8.59327434,2.81977269 10.3210619,3.48745445 11.7561062,4.36358667 C12.4831858,3.67989762 13.1635398,2.94925386 13.8318584,2.21078431 C12.2014159,0.839849037 10.1061947,-0.000711435016 7.95221239,0.183905952 C3.7260177,0.234417838 0.0276106195,4.15513621 0.187964602,8.39777893 Z" id="Path" fill="#DC4E41"></path>
                    <path d="M21.2750442,4.8619469 C21.2672566,5.64381399 21.259115,6.42959396 21.2552212,7.21110533 C20.4732743,7.21893111 19.6955752,7.222844 18.9175221,7.2267569 C18.9175221,8.00862398 18.9175221,8.78622245 18.9175221,9.56808954 C19.6955752,9.57200243 20.4775221,9.57591532 21.2552212,9.58409682 C21.2630088,10.3659639 21.2630088,11.1474753 21.2707965,11.9332552 C22.0449558,11.9332552 22.8230088,11.9293424 23.600708,11.9332552 C23.6049558,11.1474753 23.6084956,10.3659639 23.6166372,9.58018393 C24.3943363,9.57627104 25.1762832,9.57235815 25.9543363,9.56844525 C25.9543363,8.78657817 25.9543363,8.0089797 25.9543363,7.22711261 C25.1766372,7.22319972 24.3946903,7.21928683 23.6166372,7.21146104 C23.6123894,6.42959396 23.6049558,5.64381399 23.600708,4.86230262 C22.8230088,4.8619469 22.0488496,4.8619469 21.2750442,4.8619469 Z" id="Path" fill="#DC4E41"></path>
                    <g fill="#FFFFFF" id="Path">
                        <path d="M0.187964602,8.39777893 C0.0276106195,4.15513621 3.72566372,0.234417838 7.95185841,0.183550234 C10.1058407,-0.00106715252 12.2014159,0.839493319 13.8315044,2.2104286 C13.1628319,2.94925386 12.4824779,3.67954191 11.7557522,4.36323096 C10.320708,3.48709873 8.59292035,2.81941697 6.91575221,3.41239806 C4.21061947,4.18643935 2.57238938,7.39607843 3.57345133,10.0554225 C4.40247788,12.8328648 7.76424779,14.3571144 10.3989381,13.1903609 C11.7631858,12.6994708 12.6626549,11.4345393 13.0573451,10.0753427 C11.4938053,10.0440396 9.9299115,10.063604 8.36637168,10.0202065 C8.36247788,9.08538088 8.35858407,8.15411244 8.36247788,7.21928683 C10.9699115,7.21537394 13.5812389,7.20754815 16.1925664,7.23102551 C16.3529204,9.52149054 16.0166372,11.9727399 14.5348673,13.811088 C12.5058407,16.435216 8.75716814,17.2053444 5.70761062,16.175898 C2.47115044,15.1076783 0.117522124,11.8311643 0.187964602,8.39777893 Z"></path>
                        <path d="M21.2750442,4.8619469 C22.0492035,4.8619469 22.8230088,4.8619469 23.600708,4.8619469 C23.6049558,5.64381399 23.6123894,6.42959396 23.6166372,7.21110533 C24.3943363,7.21893111 25.1762832,7.222844 25.9543363,7.2267569 C25.9543363,8.00862398 25.9543363,8.78622245 25.9543363,9.56808954 C25.1766372,9.57200243 24.3946903,9.57591532 23.6166372,9.57982821 C23.6088496,10.3656082 23.6049558,11.1471196 23.600708,11.9328995 C22.8230088,11.9289866 22.0446018,11.9328995 21.2707965,11.9328995 C21.2633628,11.1471196 21.2633628,10.3656082 21.2552212,9.58374111 C20.4775221,9.5755596 19.6955752,9.57200243 18.9175221,9.56773382 C18.9175221,8.78586674 18.9175221,8.00826826 18.9175221,7.22640118 C19.6955752,7.22248829 20.4736283,7.21857539 21.2552212,7.21074961 C21.259115,6.42959396 21.2669027,5.64381399 21.2750442,4.8619469 Z"></path>
                    </g>
                </g>
            </g>
        </g>
    </g>
</svg>