<?xml version="1.0" encoding="UTF-8"?>
<svg width="40px" height="40px" viewBox="0 0 40 40" version="1.1" xmlns="http://www.w3.org/2000/svg" xmlns:xlink="http://www.w3.org/1999/xlink">
    <!-- Generator: Sketch 53.2 (72643) - https://sketchapp.com -->
    <title>globe</title>
    <desc>Created with Sketch.</desc>
    <g id="Page-1" stroke="none" stroke-width="1" fill="none" fill-rule="evenodd">
        <g id="inhouse-LP-Copy-2" transform="translate(-235.000000, -2301.000000)">
            <g id="globe" transform="translate(235.000000, 2301.000000)">
                <circle id="Oval" fill="#2B2B2B" cx="20" cy="20" r="20"></circle>
                <g id="flaticon1573720336-svg" transform="translate(8.000000, 8.000000)" fill="#FFFFFF" fill-rule="nonzero">
                    <path d="M12.418736,23.949149 C14.2525112,23.6886161 15.8600726,21.7746931 16.8716518,18.9481724 C15.4093192,18.6206753 13.9170619,18.444894 12.418736,18.4239676 L12.418736,23.949149 Z" id="Path"></path>
                    <path d="M15.3484235,23.4996512 C15.456822,23.4682617 15.5648019,23.4366629 15.6719448,23.4019253 C15.7623466,23.3728376 15.8514927,23.3414481 15.940639,23.3102679 C16.0461077,23.273856 16.1511579,23.2363979 16.2557896,23.1966378 C16.3449358,23.1627372 16.433245,23.1267439 16.5217634,23.0907506 C16.6238839,23.0478515 16.7257952,23.0051619 16.8266601,22.9622628 C16.9147601,22.9235491 17.0022321,22.882952 17.0897042,22.8421457 C17.1886858,22.7954799 17.2872489,22.7479771 17.3849749,22.6985909 C17.4707729,22.6548549 17.5563616,22.6102818 17.6421596,22.5644531 C17.7382115,22.5129744 17.8336356,22.4604492 17.9284319,22.4064592 C18.0142299,22.3579101 18.096889,22.3091518 18.1803851,22.2589286 C18.273298,22.2017997 18.3657924,22.1446708 18.4576591,22.0875418 C18.5398996,22.035226 18.6219308,21.9820731 18.7029158,21.9272461 C18.7933175,21.8663504 18.8824637,21.8029436 18.9711914,21.7395369 C19.0509208,21.6824079 19.1302316,21.6254883 19.2080776,21.5681501 C19.2938756,21.5020229 19.3817662,21.4335937 19.4677735,21.3649554 C19.5441546,21.3040597 19.6203265,21.2435826 19.695452,21.1810128 C19.7810408,21.1098633 19.863072,21.0362026 19.9461496,20.9625418 C20.0189732,20.8978795 20.0922154,20.8338449 20.1633649,20.7675084 C20.2451869,20.6911272 20.3249163,20.6120256 20.4046457,20.5335519 C20.4737026,20.465332 20.5435966,20.3981585 20.6111886,20.3282645 C20.6237444,20.3152902 20.6356724,20.3012695 20.6486468,20.2878767 C19.7138672,19.805106 18.7292829,19.42613 17.7120536,19.1578543 C17.1830357,20.8449358 16.2415597,22.3738142 14.973005,23.6055385 C15.0077427,23.5965402 15.0424805,23.5892159 15.0772182,23.5802176 C15.1688756,23.5544782 15.2588588,23.5262277 15.3484235,23.4996512 L15.3484235,23.4996512 Z" id="Path"></path>
                    <path d="M23.9803292,12.4116211 L18.8416574,12.4116211 C18.8221959,14.4180385 18.5311105,16.4125279 17.9763532,18.3408901 C19.1076311,18.6430664 20.1993583,19.0774972 21.2289342,19.6351842 C22.9193638,17.5977958 23.8869978,15.0575474 23.9803292,12.4116211 L23.9803292,12.4116211 Z" id="Path"></path>
                    <path d="M12.418736,11.5544783 L17.9845145,11.5544783 C17.9627511,9.61900114 17.6787807,7.69545204 17.1407645,5.83614675 C15.5909598,6.18959261 14.0080915,6.37834821 12.418736,6.39927455 L12.418736,11.5544783 Z" id="Path"></path>
                    <path d="M12.418736,0.0169503214 L12.418736,5.5421317 C13.9170619,5.52099611 15.4093192,5.34542411 16.8716518,5.01792691 C15.8600726,2.19140625 14.2525112,0.277483286 12.418736,0.0169503214 Z" id="Path"></path>
                    <path d="M12.418736,17.5668248 C14.0080915,17.5879604 15.5909598,17.7767159 17.1407645,18.1301619 C17.6787807,16.2708566 17.9627511,14.3470982 17.9845145,12.4116211 L12.418736,12.4116211 L12.418736,17.5668248 Z" id="Path"></path>
                    <path d="M21.2289342,4.33091518 C20.1993583,4.88860211 19.1076311,5.32303291 17.9763532,5.62520925 C18.5311105,7.55357143 18.8221959,9.54806084 18.8416574,11.5544783 L23.9803292,11.5544783 C23.8867885,8.90876116 22.9191546,6.36851282 21.2289342,4.33091518 L21.2289342,4.33091518 Z" id="Path"></path>
                    <path d="M20.6499024,3.6807338 C20.6373466,3.66796875 20.6254185,3.65415739 20.613072,3.64097379 C20.5452707,3.57107979 20.4749582,3.503697 20.4059012,3.43568636 C20.3263811,3.35721262 20.2470703,3.27790179 20.165039,3.20172991 C20.0940988,3.13560268 20.0206473,3.07303291 19.9478237,3.00711493 C19.8647461,2.93345421 19.7816685,2.85916575 19.696289,2.7880162 C19.6222098,2.72544643 19.5462472,2.66559707 19.4709124,2.60553852 C19.3851144,2.53606307 19.2972238,2.46700612 19.2089146,2.40066964 C19.1314872,2.34228514 19.0530134,2.28578405 18.9741211,2.22928291 C18.8845564,2.16482979 18.7945731,2.10058596 18.7033343,2.03927175 C18.6231864,1.98528182 18.5417829,1.93254745 18.4603795,1.88085938 C18.3676758,1.82121932 18.2751814,1.76283482 18.1808036,1.70633368 C18.0981445,1.65673827 18.0146485,1.60777066 17.9309431,1.56026786 C17.8351004,1.50544082 17.7390485,1.45228795 17.6421596,1.40039062 C17.5563616,1.35749164 17.4707729,1.31082589 17.3849749,1.26792691 C17.2864119,1.2181222 17.1870117,1.17020089 17.0851004,1.12311664 C16.9993024,1.08231027 16.9122489,1.04255025 16.8239397,1.00383648 C16.722447,0.958844893 16.6199079,0.918247768 16.5175781,0.875348786 C16.429269,0.839355482 16.3413783,0.803780679 16.2522321,0.769880036 C16.1482283,0.730119964 16.0427595,0.692871107 15.9372908,0.65645925 C15.8481445,0.625069768 15.7589983,0.593889536 15.6685966,0.564592607 C15.5614537,0.529854911 15.4543108,0.498256125 15.3442383,0.466448089 C15.2550921,0.440290179 15.1655274,0.413713714 15.0753348,0.389857714 C15.0408064,0.380440821 15.0056501,0.373116643 14.9709124,0.364118304 C16.2394671,1.59584261 17.1807338,3.12451173 17.709961,4.81180243 C18.7282366,4.54352679 19.7142857,4.16434152 20.6499024,3.6807338 L20.6499024,3.6807338 Z" id="Path"></path>
                    <path d="M0,11.5544783 L5.13867188,11.5544783 C5.15813336,9.54806084 5.44921875,7.55357143 6.00376671,5.62520925 C4.87269809,5.32324221 3.78097098,4.88881136 2.75139509,4.33091518 C1.06096543,6.36830357 0.0933315,8.90876116 0,11.5544783 Z" id="Path"></path>
                    <path d="M11.5615932,23.949149 L11.5615932,18.4239676 C10.0632673,18.4451033 8.57101007,18.6206753 7.10867743,18.9481724 C8.12004745,21.7746931 9.72781811,23.6886161 11.5615932,23.949149 Z" id="Path"></path>
                    <path d="M11.5615932,12.4116211 L5.99581473,12.4116211 C6.01757813,14.3470982 6.30133929,16.2708566 6.83956473,18.1301619 C8.38936939,17.7765067 9.97202845,17.5877511 11.5615932,17.5668248 L11.5615932,12.4116211 Z" id="Path"></path>
                    <path d="M11.5615932,0.0169503214 C9.72781811,0.277483286 8.12004745,2.19140625 7.10867743,5.01792691 C8.57101007,5.34563336 10.0632673,5.52120536 11.5615932,5.5421317 L11.5615932,0.0169503214 Z" id="Path"></path>
                    <path d="M11.5615932,6.39927455 C9.97223775,6.37834821 8.38936939,6.18959261 6.83956473,5.83614675 C6.30133929,7.69545204 6.01757813,9.61900114 5.99581473,11.5544783 L11.5615932,11.5544783 L11.5615932,6.39927455 Z" id="Path"></path>
                    <path d="M9.00606863,0.36369975 C8.97133093,0.372698089 8.93659318,0.380022321 8.90185548,0.389020661 C8.81103514,0.413295214 8.72147041,0.440290179 8.63106863,0.466448089 C8.52350727,0.497837625 8.41678291,0.529436357 8.308803,0.563755607 C8.21777346,0.593261732 8.12820868,0.624651214 8.038644,0.6558315 C7.933803,0.692871107 7.8287528,0.729701464 7.72495816,0.769042982 C7.63539343,0.803362179 7.54708425,0.838936929 7.45835657,0.875348786 C7.35644529,0.918247768 7.25432475,0.96114675 7.15366907,1.00383648 C7.06535995,1.04255025 6.97809707,1.08314732 6.890625,1.1239537 C6.79164343,1.17061939 6.69308036,1.2181222 6.59535434,1.26750836 C6.50955638,1.31124439 6.42375836,1.35602679 6.33816964,1.40164618 C6.24211773,1.453125 6.14690293,1.50585938 6.05231582,1.55984936 C5.96651786,1.60777066 5.8821847,1.65694757 5.79952564,1.70717079 C5.70640345,1.76325332 5.61432755,1.82121932 5.52267021,1.87855746 C5.44022041,1.93129184 5.35839846,1.98444477 5.27741352,2.03927175 C5.18701173,2.10016741 5.0978655,2.16357423 5.00913782,2.226981 C4.92940848,2.28410995 4.85009764,2.34102959 4.77204241,2.39857704 C4.68436104,2.46449496 4.60065568,2.53313336 4.51234655,2.6015625 C4.43617468,2.66245816 4.359375,2.72293527 4.28487723,2.78592354 C4.19907921,2.85665459 4.11767577,2.92989675 4.03501671,3.00313896 C3.96177455,3.06842914 3.88790459,3.13183596 3.81633648,3.199428 C3.73493304,3.27539063 3.6556222,3.35428291 3.57610211,3.43254745 C3.50704521,3.50076729 3.43673271,3.56815013 3.36893138,3.63825332 C3.35658482,3.65122768 3.34465682,3.66545759 3.33168246,3.6786412 C4.2662528,4.16162111 5.2510463,4.54059707 6.26827564,4.80887277 C6.7972935,3.12262832 7.73814171,1.5947963 9.00606863,0.36369975 Z" id="Path"></path>
                    <path d="M3.57421875,20.5304129 C3.65394809,20.6088867 3.73325893,20.6881976 3.81508093,20.7645787 C3.88623048,20.8304967 3.95947264,20.8930664 4.03250561,20.9589844 C4.11558316,21.0328543 4.19866071,21.1069336 4.28404018,21.1780832 C4.35811939,21.2402344 4.43366352,21.300293 4.50941684,21.3605608 C4.59521486,21.4300363 4.68080357,21.4990932 4.77162386,21.5658482 C4.84884209,21.6238142 4.92731582,21.6798968 5.00578961,21.7374442 C5.09535434,21.8016881 5.18575613,21.8659319 5.27699496,21.9276646 C5.35714286,21.9816546 5.4385463,22.034389 5.51994975,22.0862863 C5.61265345,22.1457171 5.70514789,22.2041015 5.79952564,22.2606027 C5.8821847,22.3104074 5.9656808,22.3591658 6.04938616,22.4068778 C6.14522882,22.4617048 6.24128068,22.5148577 6.33816964,22.5665458 C6.42375836,22.6094448 6.50955638,22.6561105 6.59535434,22.6990095 C6.69391741,22.7488142 6.79331754,22.7967355 6.89522882,22.844029 C6.98102679,22.8844168 7.06808036,22.9241769 7.15638954,22.9630999 C7.25788227,23.0080915 7.36021205,23.0486886 7.46275114,23.0915876 C7.55106027,23.1275809 7.63895089,23.1631557 7.72809707,23.1970564 C7.83210102,23.2370256 7.93756977,23.2742746 8.04303852,23.3106864 C8.1321847,23.3418666 8.22133093,23.3732561 8.31173271,23.4023438 C8.41887557,23.4370815 8.52601843,23.4688895 8.63609095,23.5004883 C8.72523718,23.5266462 8.81480191,23.5532226 8.90478514,23.5772879 C8.93952289,23.5867048 8.97467914,23.594029 9.00941684,23.6030274 C7.74086218,22.3710938 6.79959541,20.8424247 6.2703683,19.1551339 C5.25313896,19.4236189 4.26834541,19.8025949 3.33377512,20.2857841 C3.34633093,20.2985491 3.35825893,20.3123605 3.37081473,20.3255441 C3.43505861,20.3950195 3.50432475,20.4624024 3.57421875,20.5304129 L3.57421875,20.5304129 Z" id="Path"></path>
                    <path d="M2.75139509,19.6351842 C3.78097098,19.0774972 4.87269809,18.6430664 6.00376671,18.3408901 C5.44921875,16.4125279 5.15813336,14.4180385 5.13867188,12.4116211 L0,12.4116211 C0.09354075,15.0573381 1.06096543,17.5975865 2.75139509,19.6351842 L2.75139509,19.6351842 Z" id="Path"></path>
                </g>
            </g>
        </g>
    </g>
</svg>