<?xml version="1.0" encoding="UTF-8"?>
<svg width="40px" height="41px" viewBox="0 0 40 41" version="1.1" xmlns="http://www.w3.org/2000/svg" xmlns:xlink="http://www.w3.org/1999/xlink">
    <!-- Generator: Sketch 53.2 (72643) - https://sketchapp.com -->
    <title>in</title>
    <desc>Created with Sketch.</desc>
    <g id="Page-1" stroke="none" stroke-width="1" fill="none" fill-rule="evenodd">
        <g id="inhouse-LP-Copy-2" transform="translate(-365.000000, -2069.000000)" fill-rule="nonzero">
            <g id="in" transform="translate(365.000000, 2069.000000)">
                <ellipse id="Oval" fill="#2B2B2B" cx="19.8576991" cy="20.3104026" rx="19.8576991" ry="19.9550408"></ellipse>
                <path d="M31.7224779,21.9161114 L31.7224779,30.1431459 L26.9759292,30.1431459 L26.9759292,22.4674735 C26.9759292,20.5401961 26.2906195,19.2240413 24.5720354,19.2240413 C23.260531,19.2240413 22.4814159,20.1101336 22.1373451,20.9681242 C22.0123894,21.2747527 21.980177,21.7005466 21.980177,22.1306091 L21.980177,30.1427902 L17.2332743,30.1427902 C17.2332743,30.1427902 17.2969912,17.1427382 17.2332743,15.7970588 L21.980531,15.7970588 L21.980531,17.8299844 C21.9709735,17.8459917 21.9575221,17.8616432 21.9490265,17.8769391 L21.980531,17.8769391 L21.980531,17.8299844 C22.6113274,16.854607 23.7362832,15.4601943 26.2584071,15.4601943 C29.3812389,15.4601943 31.7224779,17.5105501 31.7224779,21.9161114 L31.7224779,21.9161114 Z M12.2676106,8.88191046 C10.6438938,8.88191046 9.58159292,9.95297588 9.58159292,11.3601943 C9.58159292,12.7375325 10.6130973,13.8395454 12.2053097,13.8395454 L12.2361062,13.8395454 C13.8916814,13.8395454 14.9210619,12.7375325 14.9210619,11.3601943 C14.8895575,9.95297588 13.8916814,8.88191046 12.2676106,8.88191046 L12.2676106,8.88191046 Z M9.86371681,30.1431459 L14.6088496,30.1431459 L14.6088496,15.7970588 L9.86371681,15.7970588 L9.86371681,30.1431459 Z" id="Shape" fill="#F1F2F2"></path>
            </g>
        </g>
    </g>
</svg>