<?xml version="1.0" encoding="UTF-8"?>
<svg width="40px" height="40px" viewBox="0 0 40 40" version="1.1" xmlns="http://www.w3.org/2000/svg" xmlns:xlink="http://www.w3.org/1999/xlink">
    <!-- Generator: Sketch 53.2 (72643) - https://sketchapp.com -->
    <title>insta</title>
    <desc>Created with Sketch.</desc>
    <g id="Page-1" stroke="none" stroke-width="1" fill="none" fill-rule="evenodd">
        <g id="inhouse-LP-Copy-2" transform="translate(-192.000000, -2069.000000)">
            <g id="insta" transform="translate(192.000000, 2069.000000)">
                <circle id="Oval" fill="#2B2B2B" cx="20" cy="20" r="20"></circle>
                <g id="flaticon1573716957-svg" transform="translate(8.000000, 8.000000)" fill="#FFFFFF" fill-rule="nonzero">
                    <path d="M16.8207826,0 L7.13721739,0 C3.20173913,0 0,3.20173913 0,7.13721739 L0,16.8207826 C0,20.7562609 3.20173913,23.958 7.13721739,23.958 L16.8207826,23.958 C20.7562609,23.958 23.958,20.7562609 23.958,16.8207826 L23.958,7.13721739 C23.9579565,3.20173913 20.7562174,0 16.8207826,0 Z M21.5478261,16.8207826 C21.5478261,19.4314348 19.4314348,21.5478261 16.8207826,21.5478261 L7.13721739,21.5478261 C4.52656522,21.5478261 2.41017391,19.4314348 2.41017391,16.8207826 L2.41017391,7.13721739 C2.41017391,4.52652174 4.52656522,2.41017391 7.13721739,2.41017391 L16.8207826,2.41017391 C19.4314348,2.41017391 21.5478261,4.52652174 21.5478261,7.13721739 L21.5478261,16.8207826 L21.5478261,16.8207826 Z" id="Shape"></path>
                    <path d="M11.979,5.7826087 C8.56230435,5.7826087 5.7826087,8.56230435 5.7826087,11.9789565 C5.7826087,15.3956087 8.56230435,18.1753478 11.979,18.1753478 C15.3956957,18.1753478 18.1753913,15.3956522 18.1753913,11.9789565 C18.1753913,8.56226087 15.3956957,5.7826087 11.979,5.7826087 Z M11.979,15.7652174 C9.88791304,15.7652174 8.19278261,14.070087 8.19278261,11.979 C8.19278261,9.88791304 9.88795652,8.19278261 11.979,8.19278261 C14.070087,8.19278261 15.7652174,9.88791304 15.7652174,11.979 C15.7652174,14.0700435 14.0700435,15.7652174 11.979,15.7652174 Z" id="Shape"></path>
                    <circle id="Oval" cx="18.1873913" cy="5.82913043" r="1.48478261"></circle>
                </g>
            </g>
        </g>
    </g>
</svg>