<?xml version="1.0" encoding="UTF-8"?>
<svg width="40px" height="40px" viewBox="0 0 40 40" version="1.1" xmlns="http://www.w3.org/2000/svg" xmlns:xlink="http://www.w3.org/1999/xlink">
    <!-- Generator: Sketch 53.2 (72643) - https://sketchapp.com -->
    <title>landingpage</title>
    <desc>Created with Sketch.</desc>
    <g id="Page-1" stroke="none" stroke-width="1" fill="none" fill-rule="evenodd">
        <g id="inhouse-LP-Copy-2" transform="translate(-192.000000, -2703.000000)">
            <g id="landingpage" transform="translate(192.000000, 2703.000000)">
                <circle id="Oval" fill="#2B2B2B" cx="20" cy="20" r="20"></circle>
                <g id="flaticon1573723650-svg" transform="translate(7.000000, 8.000000)" fill="#FFFFFF" fill-rule="nonzero">
                    <path d="M17.0702222,6.9302924 C16.5543392,6.41440936 15.8771462,6.1568655 15.1999532,6.1568655 C14.5227602,6.1568655 13.8451462,6.41483041 13.3292632,6.9302924 C12.2978713,7.96168421 12.2978713,9.63990643 13.3292632,10.6712515 C14.360655,11.7025965 16.0388772,11.7026433 17.070269,10.6712515 C18.1015673,9.63990643 18.1015673,7.96168421 17.0702222,6.9302924 Z M14.4053333,9.59476023 C14.8433684,10.0327953 15.5556959,10.0331696 15.993731,9.59476023 C16.1494737,9.43864327 16.4026199,9.43864327 16.5583158,9.59476023 C16.7144327,9.75087719 16.7144327,10.0032281 16.5583158,10.159345 C16.1837661,10.5338947 15.6918363,10.7211696 15.1995322,10.7211696 C14.7072281,10.7211696 14.2152515,10.5338947 13.8407485,10.159345 C13.0916959,9.4102924 13.0916959,8.19125146 13.8407485,7.44215205 C14.5898012,6.69309942 15.8092632,6.69309942 16.5583626,7.44215205 C16.7144795,7.59826901 16.7144795,7.85061988 16.5583626,8.00673684 C16.4026199,8.1628538 16.1494737,8.1628538 15.9937778,8.00673684 C15.5557427,7.56870175 14.8434152,7.56912281 14.4053801,8.00673684 C13.9676725,8.44481871 13.9676725,9.15677193 14.4053333,9.59476023 Z" id="Shape"></path>
                    <path d="M23.9392749,0.425777778 C23.9229006,0.231345029 23.7687953,0.0771929825 23.5743158,0.0608187135 C23.5052164,0.0552046784 19.8912281,-0.195929825 15.6423392,1.68233918 L22.3181287,8.35817544 C24.1963977,4.10928655 23.9452632,0.494877193 23.9392749,0.425777778 Z" id="Path"></path>
                    <path d="M21.9575673,9.12720468 L14.8736842,2.04332164 C12.216,3.36219883 9.3865731,5.55073684 7.0591345,9.14994152 L3.92425731,8.94109942 C3.75017544,8.92392982 3.58923977,9.0317193 3.52575439,9.19387135 L1.10404678,15.382924 C1.03897076,15.5490526 1.09207018,15.7382924 1.23419883,15.8461287 C1.30568421,15.9004444 1.39073684,15.9275789 1.47578947,15.9275789 C1.56004678,15.9275789 1.64430409,15.9012398 1.71536842,15.8477193 L3.7254269,14.3403977 L4.77716959,14.5508304 L6.36355556,16.1372164 L5.92753216,16.9206082 C5.39925146,16.6606784 4.78835088,16.5935906 4.19059649,16.7449357 C3.39083041,16.9477895 2.73674854,17.493614 2.3965848,18.2422924 L0.0359298246,23.435883 C-0.032748538,23.5872281 -0.000795321637,23.7657076 0.117005848,23.8835088 C0.193684211,23.9601871 0.295906433,24.0005146 0.399719298,24.0005146 C0.455625731,24.0005146 0.511906433,23.9889591 0.565005848,23.9645848 L5.75859649,21.6035556 C6.5068538,21.263345 7.05272515,20.609731 7.25553216,19.8099181 C7.41207018,19.1934035 7.33539181,18.5621053 7.05389474,18.022269 L7.79859649,17.571883 L9.45005848,19.223345 L9.66049123,20.275462 L8.15316959,22.2850994 C8.04617544,22.4276491 8.04654971,22.6245146 8.15476023,22.7666433 C8.23181287,22.8680702 8.35083041,22.9243509 8.47260819,22.9243509 C8.52130994,22.9243509 8.57043275,22.9155556 8.61796491,22.8967953 L14.8070175,20.4751345 C14.9691228,20.4116491 15.071345,20.2507135 15.0597895,20.0766316 L14.8509474,16.9413801 C18.4497778,14.6138947 20.6386901,11.7848889 21.9575673,9.12720468 Z M6.48173099,19.6130526 C6.33880702,20.1764678 5.95466667,20.6368187 5.42839766,20.8763977 L1.20388304,22.7965848 L3.12407018,18.5720702 C3.36364912,18.0458012 3.82404678,17.6616608 4.3874152,17.5187368 C4.53553216,17.4812164 4.68449123,17.4628304 4.8314386,17.4628304 C5.07859649,17.4628304 5.31976608,17.5155556 5.54016374,17.6169357 C5.44991813,17.7790409 5.35967251,17.9415673 5.2694269,18.1036725 C5.14643275,18.3244912 5.01745029,18.5956023 5.26381287,18.7960234 C5.48421053,18.974924 5.71780117,18.8307836 5.92266667,18.7149474 C6.07560234,18.6283041 6.22853801,18.5420351 6.38147368,18.4553918 C6.54563743,18.8076725 6.58278363,19.2145497 6.48173099,19.6130526 Z M6.28926316,10.4240936 C6.23854971,10.5143392 6.18704094,10.6025731 6.13712281,10.6944094 C5.99976608,10.9475556 5.86680702,11.2063158 5.73623392,11.467462 C5.69272515,11.5541053 5.64757895,11.6367719 5.6048655,11.7250058 C5.43756725,12.0683977 5.27625731,12.4185731 5.12051462,12.7743626 C5.07621053,12.8757895 5.03424561,12.9827836 4.99073684,13.0858012 C4.90091228,13.2982456 4.80987135,13.5090526 4.72439766,13.7254737 L3.70699415,13.5222456 C3.59597661,13.499883 3.48018713,13.5262222 3.3891462,13.5945263 L2.35939181,14.3667836 L4.1634152,9.75733333 L6.57394152,9.91826901 C6.47616374,10.0835088 6.38353216,10.2552047 6.28926316,10.4240936 Z M6.59312281,17.3674386 L7.16809357,16.3340819 C7.18605848,16.3133099 7.20921637,16.298152 7.22278363,16.2737778 L9.1254269,12.819883 L11.1810058,12.819883 L11.1810058,14.5915322 L6.59312281,17.3674386 Z M9.63377778,21.641076 L10.4060351,20.6113216 C10.4742924,20.5202807 10.5002573,20.4048655 10.4783158,20.2934737 L10.2750877,19.2772865 C10.4951111,19.1902222 10.7095205,19.0975906 10.9255205,19.0061754 C11.0245614,18.9642573 11.1271579,18.9239298 11.2246082,18.8815906 C11.5819883,18.7254737 11.9333333,18.5637427 12.2779415,18.3956491 C12.3614035,18.3549006 12.4404678,18.3118129 12.5227135,18.2706901 C12.7882573,18.137731 13.0509942,18.0027602 13.3077427,17.8633918 C13.3975673,17.814269 13.4838363,17.7639766 13.5724912,17.7144327 C13.7429708,17.6186199 13.9163041,17.525193 14.082807,17.4269474 L14.2433216,19.8374737 L9.63377778,21.641076 Z M15.1995322,12.2429006 C14.3178947,12.2429006 13.4358363,11.9075088 12.7642573,11.235883 C11.4214269,9.89305263 11.4214269,7.70853801 12.7642573,6.3657076 C14.1070877,5.02287719 16.2920234,5.02287719 17.6344327,6.3657076 C18.9772632,7.70853801 18.9772632,9.89305263 17.6344327,11.235883 C16.9631813,11.907462 16.0811696,12.2429006 15.1995322,12.2429006 Z" id="Shape"></path>
                </g>
            </g>
        </g>
    </g>
</svg>