<?xml version="1.0" encoding="UTF-8"?>
<svg width="67px" height="67px" viewBox="0 0 67 67" version="1.1" xmlns="http://www.w3.org/2000/svg" xmlns:xlink="http://www.w3.org/1999/xlink">
    <!-- Generator: Sketch 53.2 (72643) - https://sketchapp.com -->
    <title>6</title>
    <desc>Created with Sketch.</desc>
    <g id="Page-1" stroke="none" stroke-width="1" fill="none" fill-rule="evenodd">
        <g id="inhouse-LP-Copy-2" transform="translate(-723.000000, -1860.000000)" fill-rule="nonzero">
            <g id="6" transform="translate(756.500000, 1893.500000) scale(-1, 1) translate(-756.500000, -1893.500000) translate(723.000000, 1860.000000)">
                <path d="M67,33.5 L33.5,33.5 C14.99862,33.5 -5.68434189e-14,48.498486 -5.68434189e-14,67 L-5.68434189e-14,67 L33.5,67 C52.00138,67 67,52.001514 67,33.5 L67,33.5 Z" id="Shape" fill="#FFC700"></path>
                <path d="M67,33.5 L33.5,33.5 C14.99862,33.5 -5.68434189e-14,18.5015184 -5.68434189e-14,0 L-5.68434189e-14,0 L33.5,2.92863614e-06 C52.00138,4.54608936e-06 67,14.9984914 67,33.5 L67,33.5 Z" id="Shape" fill="#FF743C"></path>
            </g>
        </g>
    </g>
</svg>