<?xml version="1.0" encoding="UTF-8"?>
<svg width="232px" height="165px" viewBox="0 0 232 165" version="1.1" xmlns="http://www.w3.org/2000/svg" xmlns:xlink="http://www.w3.org/1999/xlink">
    <!-- Generator: Sketch 53.2 (72643) - https://sketchapp.com -->
    <title>2</title>
    <desc>Created with Sketch.</desc>
    <g id="Page-1" stroke="none" stroke-width="1" fill="none" fill-rule="evenodd">
        <g id="inhouse-LP-Copy-2" transform="translate(-938.000000, -256.000000)" fill-rule="nonzero">
            <g id="2" transform="translate(938.500000, 256.000000)">
                <g id="Group-16" transform="translate(107.500000, 93.000000) scale(-1, 1) translate(-107.500000, -93.000000) translate(0.000000, 21.000000)">
                    <path d="M0,0 L0,71.6 C0,111.143248 32.0866,143.2 71.6666667,143.2 L71.6666667,143.2 L71.6666667,71.6 C71.6666667,32.056752 39.5800667,0 0,0 L0,0 Z" id="Shape" fill="#FF743C"></path>
                    <path d="M35.8333333,71.8468966 L35.8333333,107.343088 C35.8333333,127.146143 51.8766333,143.2 71.6666667,143.2 L71.6666667,143.2 L71.6666667,107.703809 C71.6666667,87.9000361 55.6233667,71.8468966 35.8333333,71.8468966 L35.8333333,71.8468966 Z" id="Shape" fill="#2B2B2B"></path>
                    <path d="M215,71.6 L143.333333,71.6 C103.753267,71.6 71.6666667,103.656752 71.6666667,143.2 L71.6666667,143.2 L143.333333,143.2 C182.9134,143.2 215,111.143248 215,71.6 L215,71.6 Z" id="Shape" fill="#2B2B2B"></path>
                    <path d="M143.333333,107.4 L107.681153,107.4 C87.7910724,107.4 71.6666667,123.428376 71.6666667,143.2 L71.6666667,143.2 L107.318847,143.2 C127.209648,143.2 143.333333,127.171624 143.333333,107.4 L143.333333,107.4 Z" id="Shape" fill="#F0F1F1"></path>
                </g>
                <path d="M231.5,146 C231.5,153.179467 225.679727,159 218.5,159 L218.5,159 C211.320273,159 205.5,153.179467 205.5,146 L205.5,146 C205.5,138.820533 211.320273,133 218.5,133 L218.5,133 C225.679727,133 231.5,138.820533 231.5,146 L231.5,146 Z" id="Shape" fill="#2B2B2B"></path>
                <path d="M134.5,95 C134.5,99.4181333 130.918293,103 126.5,103 L126.5,103 C122.081707,103 118.5,99.4181333 118.5,95 L118.5,95 C118.5,90.5818667 122.081707,87 126.5,87 L126.5,87 C130.918293,87 134.5,90.5818667 134.5,95 L134.5,95 Z" id="Shape" fill="#6ED47C"></path>
                <path d="M1.5,150 C1.5,145.581867 5.08186667,142 9.5,142 L9.5,142 C13.9181333,142 17.5,145.581867 17.5,150 L17.5,150 C17.5,154.418133 13.9181333,158 9.5,158 L9.5,158 C5.08186667,158 1.5,154.418133 1.5,150 L1.5,150 Z" id="Shape" fill="#FF743C"></path>
                <path d="M201.5,8 C201.5,3.58186667 205.081867,0 209.5,0 L209.5,0 C213.918133,0 217.5,3.58186667 217.5,8 L217.5,8 C217.5,12.4181333 213.918133,16 209.5,16 L209.5,16 C205.081867,16 201.5,12.4181333 201.5,8 L201.5,8 Z" id="Shape" fill="#D5E155"></path>
            </g>
        </g>
    </g>
</svg>