<?xml version="1.0" encoding="UTF-8"?>
<svg width="60px" height="99px" viewBox="0 0 60 99" version="1.1" xmlns="http://www.w3.org/2000/svg" xmlns:xlink="http://www.w3.org/1999/xlink">
    <!-- Generator: Sketch 53.2 (72643) - https://sketchapp.com -->
    <title>8</title>
    <desc>Created with Sketch.</desc>
    <g id="Page-1" stroke="none" stroke-width="1" fill="none" fill-rule="evenodd">
        <g id="inhouse-LP-Copy-2" transform="translate(-120.000000, -2887.000000)" fill-rule="nonzero">
            <g id="8" transform="translate(120.000000, 2887.000000)">
                <g id="Group" transform="translate(18.000000, 0.000000)">
                    <path d="M0,18 C0,8.0586 8.0586,4.97379915e-14 18,4.97379915e-14 L18,4.97379915e-14 C27.9414,4.97379915e-14 36,8.0586 36,18 L36,18 C36,27.9414 27.9414,36 18,36 L18,36 C8.0586,36 0,27.9414 0,18 L0,18 Z" id="Shape" fill="#6ED47C"></path>
                    <path d="M9.10344828,18.1034483 C9.10344828,13.1330483 13.1330483,9.10344828 18.1034483,9.10344828 L18.1034483,9.10344828 C23.0738483,9.10344828 27.1034483,13.1330483 27.1034483,18.1034483 L27.1034483,18.1034483 C27.1034483,23.0738483 23.0738483,27.1034483 18.1034483,27.1034483 L18.1034483,27.1034483 C13.1330483,27.1034483 9.10344828,23.0738483 9.10344828,18.1034483 L9.10344828,18.1034483 Z" id="Shape" fill="#FFC700"></path>
                </g>
                <g id="Group-22" transform="translate(30.000000, 69.000000) scale(-1, 1) translate(-30.000000, -69.000000) translate(0.000000, 39.000000)">
                    <path d="M-5.68434189e-14,30 C-5.68434189e-14,46.5684 13.4316,60 30,60 L30,60 C46.5684,60 60,46.5684 60,30 L60,30 C60,13.4316 46.5684,0 30,0 L-5.68434189e-14,0 L-5.68434189e-14,30 Z" id="Shape" fill="#6ED47C"></path>
                    <path d="M-1.27897692e-13,15.5175426 C-1.27897692e-13,24.0871925 6.94729021,31.0344828 15.5175426,31.0344828 L15.5175426,31.0344828 C24.0871925,31.0344828 31.0344828,24.0871925 31.0344828,15.5175426 L31.0344828,15.5175426 C31.0344828,6.94729021 24.0871925,-7.81597009e-14 15.5175426,-7.81597009e-14 L-1.27897692e-13,-7.81597009e-14 L-1.27897692e-13,15.5175426 Z" id="Shape" fill="#2B2B2B"></path>
                </g>
            </g>
        </g>
    </g>
</svg>