<?xml version="1.0" encoding="UTF-8"?>
<svg width="80px" height="81px" viewBox="0 0 80 81" version="1.1" xmlns="http://www.w3.org/2000/svg" xmlns:xlink="http://www.w3.org/1999/xlink">
    <!-- Generator: Sketch 53.2 (72643) - https://sketchapp.com -->
    <title>4</title>
    <desc>Created with Sketch.</desc>
    <g id="Page-1" stroke="none" stroke-width="1" fill="none" fill-rule="evenodd">
        <g id="inhouse-LP-Copy-2" transform="translate(-1001.000000, -901.000000)" fill-rule="nonzero">
            <g id="4" transform="translate(1001.000000, 901.000000)">
                <path d="M-5.68434189e-14,40.2985075 C-5.68434189e-14,18.0424478 17.9088,0 40,0 L40,0 C62.0912,0 80,18.0424478 80,40.2985075 L80,40.2985075 C80,62.5545672 62.0912,80.5970149 40,80.5970149 L-5.68434189e-14,80.5970149 L-5.68434189e-14,40.2985075 Z" id="Shape" fill="#FF743C"></path>
                <path d="M-1.27897692e-13,60.0304755 C-1.27897692e-13,48.5190054 9.26305361,39.1868245 20.6900568,39.1868245 L20.6900568,39.1868245 C32.1162567,39.1868245 41.3793103,48.5190054 41.3793103,60.0304755 L41.3793103,60.0304755 C41.3793103,71.5427548 32.1162567,80.8749357 20.6900568,80.8749357 L-1.27897692e-13,80.8749357 L-1.27897692e-13,60.0304755 Z" id="Shape" fill="#FFC700"></path>
            </g>
        </g>
    </g>
</svg>