<?xml version="1.0" encoding="UTF-8"?>
<svg width="123px" height="186px" viewBox="0 0 123 186" version="1.1" xmlns="http://www.w3.org/2000/svg" xmlns:xlink="http://www.w3.org/1999/xlink">
    <!-- Generator: Sketch 53.2 (72643) - https://sketchapp.com -->
    <title>9</title>
    <desc>Created with Sketch.</desc>
    <g id="Page-1" stroke="none" stroke-width="1" fill="none" fill-rule="evenodd">
        <g id="inhouse-LP-Copy-2" transform="translate(-836.000000, -2849.000000)" fill-rule="nonzero">
            <g id="9" transform="translate(836.000000, 2849.000000)">
                <g id="Group-23" transform="translate(92.000000, 93.000000) rotate(-180.000000) translate(-92.000000, -93.000000) translate(61.000000, 0.000000)">
                    <path d="M62,62 C27.75864,62 0,34.24136 0,4.54747351e-13 L62,4.54747351e-13 L62,62 Z" id="Shape" fill="#2B2B2B"></path>
                    <path d="M0,186 L0,124 C0,89.75864 27.75864,62 62,62 L62,62 L62,124 C62,158.24136 34.24136,186 0,186 L0,186 Z" id="Shape" fill="#6ED47C"></path>
                    <path d="M31,124 L31,93.1564052 C31,75.9493457 44.87932,62 62,62 L62,62 L62,92.8435948 C62,110.050654 48.12068,124 31,124 L31,124 Z" id="Shape" fill="#2B2B2B"></path>
                </g>
                <g id="Group-25" transform="translate(0.000000, 17.000000)">
                    <path d="M30,60 C46.5684,60 60,46.5684 60,30 C60,13.4316 46.5684,0 30,0 C13.4316,0 0,13.4316 0,30 L0,60 L30,60 Z" id="Shape" fill="#FF743C" transform="translate(30.000000, 30.000000) scale(-1, 1) translate(-30.000000, -30.000000) "></path>
                    <path d="M40,52 C46.62736,52 52,46.62736 52,40 C52,33.37264 46.62736,28 40,28 C33.37264,28 28,33.37264 28,40 L28,52 L40,52 Z" id="Shape" fill="#FFFFFF" transform="translate(40.000000, 40.000000) scale(-1, 1) translate(-40.000000, -40.000000) "></path>
                </g>
            </g>
        </g>
    </g>
</svg>