<?xml version="1.0" encoding="UTF-8"?>
<svg width="167px" height="79px" viewBox="0 0 167 79" version="1.1" xmlns="http://www.w3.org/2000/svg" xmlns:xlink="http://www.w3.org/1999/xlink">
    <!-- Generator: Sketch 53.2 (72643) - https://sketchapp.com -->
    <title>logo</title>
    <desc>Created with Sketch.</desc>
    <g id="Page-1" stroke="none" stroke-width="1" fill="none" fill-rule="evenodd">
        <g id="inhouse-LP-Copy-2" transform="translate(-180.000000, 0.000000)">
            <g id="logo" transform="translate(180.000000, 0.000000)">
                <path d="M0,0 L59,0 L59,77 C59,78.1045695 58.1045695,79 57,79 L2,79 C0.8954305,79 1.3527075e-16,78.1045695 0,77 L0,0 Z" id="Rectangle" fill="#2B2B2B"></path>
                <path d="M14.49,46.97 C17.6100156,46.97 19.9999917,47.5249945 21.66,48.635 C23.3200083,49.7450056 24.15,51.4699883 24.15,53.81 C24.15,55.2700073 23.8150033,56.4549954 23.145,57.365 C22.4749967,58.2750046 21.5100063,58.9899974 20.25,59.51 C20.6700021,60.0300026 21.1099977,60.6249966 21.57,61.295 C22.0300023,61.9650034 22.4849977,62.6649964 22.935,63.395 C23.3850022,64.1250036 23.8199979,64.884996 24.24,65.675 C24.6600021,66.4650039 25.0499982,67.2399962 25.41,68 L20.16,68 C19.7799981,67.3199966 19.395002,66.6300035 19.005,65.93 C18.6149981,65.2299965 18.2150021,64.5500033 17.805,63.89 C17.394998,63.2299967 16.990002,62.6050029 16.59,62.015 C16.189998,61.4249971 15.790002,60.8900024 15.39,60.41 L13.08,60.41 L13.08,68 L8.4,68 L8.4,47.51 C9.4200051,47.309999 10.4749945,47.1700004 11.565,47.09 C12.6550054,47.0099996 13.6299957,46.97 14.49,46.97 Z M14.76,50.96 C14.4199983,50.96 14.1150014,50.9699999 13.845,50.99 C13.5749986,51.0100001 13.3200012,51.0299999 13.08,51.05 L13.08,56.69 L14.4,56.69 C16.1600088,56.69 17.4199962,56.4700022 18.18,56.03 C18.9400038,55.5899978 19.32,54.8400053 19.32,53.78 C19.32,52.7599949 18.9350039,52.0350021 18.165,51.605 C17.3949962,51.1749978 16.2600075,50.96 14.76,50.96 Z M34.7893748,47.21 C35.1493766,47.8700033 35.5643724,48.6849951 36.0343748,49.655 C36.5043771,50.6250048 36.9943722,51.6749943 37.5043748,52.805 C38.0143774,53.9350057 38.5193723,55.0899941 39.0193748,56.27 C39.5193773,57.4500059 39.9893726,58.5599948 40.4293748,59.6 C40.869377,58.5599948 41.3393723,57.4500059 41.8393748,56.27 C42.3393773,55.0899941 42.8443722,53.9350057 43.3543748,52.805 C43.8643774,51.6749943 44.3543724,50.6250048 44.8243748,49.655 C45.2943772,48.6849951 45.709373,47.8700033 46.0693748,47.21 L50.3293748,47.21 C50.5293758,48.5900069 50.7143739,50.1349915 50.8843748,51.845 C51.0543756,53.5550085 51.2043741,55.3349908 51.3343748,57.185 C51.4643754,59.0350093 51.5843742,60.8899907 51.6943748,62.75 C51.8043754,64.6100093 51.8993744,66.3599918 51.9793748,68 L47.4193748,68 C47.3593745,65.9799899 47.2793753,63.7800119 47.1793748,61.4 C47.0793743,59.0199881 46.9293758,56.6200121 46.7293748,54.2 C46.369373,55.0400042 45.969377,55.9699949 45.5293748,56.99 C45.0893726,58.0100051 44.6543769,59.0299949 44.2243748,60.05 C43.7943726,61.0700051 43.3793768,62.0449954 42.9793748,62.975 C42.5793728,63.9050047 42.2393762,64.6999967 41.9593748,65.36 L38.6893748,65.36 C38.4093734,64.6999967 38.0693768,63.9050047 37.6693748,62.975 C37.2693728,62.0449954 36.8543769,61.0700051 36.4243748,60.05 C35.9943726,59.0299949 35.559377,58.0100051 35.1193748,56.99 C34.6793726,55.9699949 34.2793766,55.0400042 33.9193748,54.2 C33.7193738,56.6200121 33.5693753,59.0199881 33.4693748,61.4 C33.3693743,63.7800119 33.2893751,65.9799899 33.2293748,68 L28.6693748,68 C28.7493752,66.3599918 28.8443742,64.6100093 28.9543748,62.75 C29.0643753,60.8899907 29.1843741,59.0350093 29.3143748,57.185 C29.4443755,55.3349908 29.5943739,53.5550085 29.7643748,51.845 C29.9343756,50.1349915 30.1193738,48.5900069 30.3193748,47.21 L34.7893748,47.21 Z" id="RM" fill="#FFFFFF" fill-rule="nonzero"></path>
                <path d="M76.91,67.52 C76.3299971,67.720001 75.5900045,67.9099991 74.69,68.09 C73.7899955,68.2700009 72.6500069,68.36 71.27,68.36 C70.1299943,68.36 69.0950046,68.1750019 68.165,67.805 C67.2349954,67.4349981 66.4350034,66.9000035 65.765,66.2 C65.0949966,65.4999965 64.5750019,64.650005 64.205,63.65 C63.8349981,62.649995 63.65,61.5200063 63.65,60.26 C63.65,59.0799941 63.8049984,57.995005 64.115,57.005 C64.4250016,56.014995 64.879997,55.1600036 65.48,54.44 C66.080003,53.7199964 66.8149957,53.160002 67.685,52.76 C68.5550044,52.359998 69.5499944,52.16 70.67,52.16 C71.6900051,52.16 72.5749962,52.3049986 73.325,52.595 C74.0750037,52.8850015 74.6199983,53.1599987 74.96,53.42 L74.96,45.08 L76.91,44.72 L76.91,67.52 Z M74.96,55.31 C74.7799991,55.1699993 74.5550013,55.0200008 74.285,54.86 C74.0149986,54.6999992 73.7000018,54.5500007 73.34,54.41 C72.9799982,54.2699993 72.5900021,54.1550005 72.17,54.065 C71.7499979,53.9749995 71.3100023,53.93 70.85,53.93 C69.8899952,53.93 69.0850032,54.0999983 68.435,54.44 C67.7849968,54.7800017 67.260002,55.2349971 66.86,55.805 C66.459998,56.3750029 66.1700009,57.0449962 65.99,57.815 C65.8099991,58.5850038 65.72,59.3999957 65.72,60.26 C65.72,62.3000102 66.2299949,63.8649945 67.25,64.955 C68.2700051,66.0450054 69.6199916,66.59 71.3,66.59 C72.2600048,66.59 73.0349971,66.5450005 73.625,66.455 C74.2150029,66.3649995 74.6599985,66.2700005 74.96,66.17 L74.96,55.31 Z M81.999375,60.23 C81.999375,58.8699932 82.194373,57.6850051 82.584375,56.675 C82.9743769,55.664995 83.4843719,54.8200034 84.114375,54.14 C84.7443782,53.4599966 85.464371,52.9550016 86.274375,52.625 C87.084379,52.2949984 87.9193707,52.13 88.779375,52.13 C90.6793845,52.13 92.1943693,52.7499938 93.324375,53.99 C94.4543806,55.2300062 95.019375,57.1399871 95.019375,59.72 C95.019375,59.8800008 95.014375,60.0399992 95.004375,60.2 C94.9943749,60.3600008 94.9793751,60.5099993 94.959375,60.65 L84.069375,60.65 C84.1293753,62.5500095 84.5993706,64.0099949 85.479375,65.03 C86.3593794,66.0500051 87.7593654,66.56 89.679375,66.56 C90.7393803,66.56 91.5793719,66.460001 92.199375,66.26 C92.8193781,66.059999 93.2693736,65.8900007 93.549375,65.75 L93.909375,67.43 C93.6293736,67.5900008 93.1043788,67.7799989 92.334375,68 C91.5643711,68.2200011 90.6593802,68.33 89.619375,68.33 C88.2593682,68.33 87.0993798,68.130002 86.139375,67.73 C85.1793702,67.329998 84.3893781,66.7700036 83.769375,66.05 C83.1493719,65.3299964 82.6993764,64.4750049 82.419375,63.485 C82.1393736,62.494995 81.999375,61.4100059 81.999375,60.23 Z M93.009375,59 C92.9693748,57.3799919 92.5893786,56.1200045 91.869375,55.22 C91.1493714,54.3199955 90.1293816,53.87 88.809375,53.87 C88.1093715,53.87 87.4843777,54.0099986 86.934375,54.29 C86.3843722,54.5700014 85.904377,54.9449977 85.494375,55.415 C85.084373,55.8850024 84.7643762,56.4299969 84.534375,57.05 C84.3043738,57.6700031 84.1693752,58.3199966 84.129375,59 L93.009375,59 Z M103.40875,66.62 C104.528756,66.62 105.453746,66.4350018 106.18375,66.065 C106.913754,65.6949982 107.27875,65.0700044 107.27875,64.19 C107.27875,63.7699979 107.213751,63.4100015 107.08375,63.11 C106.953749,62.8099985 106.738751,62.5400012 106.43875,62.3 C106.138748,62.0599988 105.743752,61.8300011 105.25375,61.61 C104.763748,61.3899989 104.158754,61.1300015 103.43875,60.83 C102.858747,60.5899988 102.308753,60.3450013 101.78875,60.095 C101.268747,59.8449988 100.808752,59.5550017 100.40875,59.225 C100.008748,58.8949984 99.6887512,58.5000023 99.44875,58.04 C99.2087488,57.5799977 99.08875,57.0200033 99.08875,56.36 C99.08875,55.0999937 99.5637452,54.0800039 100.51375,53.3 C101.463755,52.5199961 102.768742,52.13 104.42875,52.13 C105.488755,52.13 106.363747,52.2199991 107.05375,52.4 C107.743753,52.5800009 108.228749,52.7399993 108.50875,52.88 L108.05875,54.62 C107.818749,54.4999994 107.413753,54.340001 106.84375,54.14 C106.273747,53.939999 105.438755,53.84 104.33875,53.84 C103.898748,53.84 103.483752,53.8849996 103.09375,53.975 C102.703748,54.0650004 102.358751,54.204999 102.05875,54.395 C101.758748,54.585001 101.518751,54.8249986 101.33875,55.115 C101.158749,55.4050015 101.06875,55.7599979 101.06875,56.18 C101.06875,56.6000021 101.148749,56.9599985 101.30875,57.26 C101.468751,57.5600015 101.703748,57.8249989 102.01375,58.055 C102.323752,58.2850011 102.703748,58.499999 103.15375,58.7 C103.603752,58.900001 104.118747,59.1199988 104.69875,59.36 C105.298753,59.6000012 105.873747,59.8449988 106.42375,60.095 C106.973753,60.3450013 107.458748,60.6449983 107.87875,60.995 C108.298752,61.3450018 108.638749,61.7649976 108.89875,62.255 C109.158751,62.7450025 109.28875,63.3599963 109.28875,64.1 C109.28875,65.500007 108.763755,66.5599964 107.71375,67.28 C106.663745,68.0000036 105.228759,68.36 103.40875,68.36 C102.048743,68.36 101.008754,68.2450012 100.28875,68.015 C99.5687464,67.7849988 99.0887512,67.6100006 98.84875,67.49 L99.35875,65.72 C99.4187503,65.7600002 99.548749,65.8249996 99.74875,65.915 C99.948751,66.0050004 100.218748,66.1049995 100.55875,66.215 C100.898752,66.3250005 101.303748,66.4199996 101.77375,66.5 C102.243752,66.5800004 102.788747,66.62 103.40875,66.62 Z M115.878125,68 L113.928125,68 L113.928125,52.49 L115.878125,52.49 L115.878125,68 Z M116.328125,47.81 C116.328125,48.2700023 116.188126,48.6349986 115.908125,48.905 C115.628124,49.1750014 115.288127,49.31 114.888125,49.31 C114.488123,49.31 114.148126,49.1750014 113.868125,48.905 C113.588124,48.6349986 113.448125,48.2700023 113.448125,47.81 C113.448125,47.3499977 113.588124,46.9850014 113.868125,46.715 C114.148126,46.4449987 114.488123,46.31 114.888125,46.31 C115.288127,46.31 115.628124,46.4449987 115.908125,46.715 C116.188126,46.9850014 116.328125,47.3499977 116.328125,47.81 Z M132.0075,66.2 C131.887499,66.3000005 131.707501,66.4149994 131.4675,66.545 C131.227499,66.6750007 130.932502,66.8099993 130.5825,66.95 C130.232498,67.0900007 129.832502,67.2049995 129.3825,67.295 C128.932498,67.3850005 128.427503,67.43 127.8675,67.43 C126.967495,67.43 126.097504,67.2900014 125.2575,67.01 C124.417496,66.7299986 123.682503,66.290003 123.0525,65.69 C122.422497,65.089997 121.917502,64.3150047 121.5375,63.365 C121.157498,62.4149953 120.9675,61.2600068 120.9675,59.9 C120.9675,58.7999945 121.137498,57.7800047 121.4775,56.84 C121.817502,55.8999953 122.302497,55.0850035 122.9325,54.395 C123.562503,53.7049966 124.332495,53.1650019 125.2425,52.775 C126.152505,52.3849981 127.177494,52.19 128.3175,52.19 C129.757507,52.19 130.912496,52.284999 131.7825,52.475 C132.652504,52.6650009 133.367497,52.8499991 133.9275,53.03 L133.9275,67.19 C133.9275,69.5100116 133.327506,71.1649951 132.1275,72.155 C130.927494,73.145005 129.117512,73.64 126.6975,73.64 C125.697495,73.64 124.792504,73.5650007 123.9825,73.415 C123.172496,73.2649993 122.477503,73.090001 121.8975,72.89 L122.2875,71.12 C122.767502,71.3400011 123.422496,71.5299992 124.2525,71.69 C125.082504,71.8500008 125.917496,71.93 126.7575,71.93 C128.597509,71.93 129.932496,71.5750035 130.7625,70.865 C131.592504,70.1549964 132.0075,68.9400086 132.0075,67.22 L132.0075,66.2 Z M131.9775,54.38 C131.637498,54.2799995 131.197503,54.1850005 130.6575,54.095 C130.117497,54.0049996 129.347505,53.96 128.3475,53.96 C127.507496,53.96 126.762503,54.1049986 126.1125,54.395 C125.462497,54.6850015 124.907502,55.0949973 124.4475,55.625 C123.987498,56.1550027 123.637501,56.7849964 123.3975,57.515 C123.157499,58.2450037 123.0375,59.0499956 123.0375,59.93 C123.0375,60.9500051 123.177499,61.8249963 123.4575,62.555 C123.737501,63.2850037 124.102498,63.8799977 124.5525,64.34 C125.002502,64.8000023 125.517497,65.134999 126.0975,65.345 C126.677503,65.5550011 127.267497,65.66 127.8675,65.66 C128.747504,65.66 129.552496,65.5300013 130.2825,65.27 C131.012504,65.0099987 131.577498,64.7100017 131.9775,64.37 L131.9775,54.38 Z M139.946875,53.03 C140.526878,52.8699992 141.30687,52.690001 142.286875,52.49 C143.26688,52.289999 144.466868,52.19 145.886875,52.19 C147.066881,52.19 148.051871,52.3599983 148.841875,52.7 C149.631879,53.0400017 150.261873,53.5249969 150.731875,54.155 C151.201877,54.7850032 151.536874,55.5399956 151.736875,56.42 C151.936876,57.3000044 152.036875,58.2699947 152.036875,59.33 L152.036875,68 L150.086875,68 L150.086875,59.96 C150.086875,58.8599945 150.011876,57.9300038 149.861875,57.17 C149.711874,56.4099962 149.461877,55.7900024 149.111875,55.31 C148.761873,54.8299976 148.301878,54.485001 147.731875,54.275 C147.161872,54.064999 146.446879,53.96 145.586875,53.96 C144.66687,53.96 143.871878,54.0099995 143.201875,54.11 C142.531872,54.2100005 142.096876,54.2999996 141.896875,54.38 L141.896875,68 L139.946875,68 L139.946875,53.03 Z M161.05625,66.62 C162.176256,66.62 163.101246,66.4350018 163.83125,66.065 C164.561254,65.6949982 164.92625,65.0700044 164.92625,64.19 C164.92625,63.7699979 164.861251,63.4100015 164.73125,63.11 C164.601249,62.8099985 164.386251,62.5400012 164.08625,62.3 C163.786248,62.0599988 163.391252,61.8300011 162.90125,61.61 C162.411248,61.3899989 161.806254,61.1300015 161.08625,60.83 C160.506247,60.5899988 159.956253,60.3450013 159.43625,60.095 C158.916247,59.8449988 158.456252,59.5550017 158.05625,59.225 C157.656248,58.8949984 157.336251,58.5000023 157.09625,58.04 C156.856249,57.5799977 156.73625,57.0200033 156.73625,56.36 C156.73625,55.0999937 157.211245,54.0800039 158.16125,53.3 C159.111255,52.5199961 160.416242,52.13 162.07625,52.13 C163.136255,52.13 164.011247,52.2199991 164.70125,52.4 C165.391253,52.5800009 165.876249,52.7399993 166.15625,52.88 L165.70625,54.62 C165.466249,54.4999994 165.061253,54.340001 164.49125,54.14 C163.921247,53.939999 163.086255,53.84 161.98625,53.84 C161.546248,53.84 161.131252,53.8849996 160.74125,53.975 C160.351248,54.0650004 160.006251,54.204999 159.70625,54.395 C159.406248,54.585001 159.166251,54.8249986 158.98625,55.115 C158.806249,55.4050015 158.71625,55.7599979 158.71625,56.18 C158.71625,56.6000021 158.796249,56.9599985 158.95625,57.26 C159.116251,57.5600015 159.351248,57.8249989 159.66125,58.055 C159.971252,58.2850011 160.351248,58.499999 160.80125,58.7 C161.251252,58.900001 161.766247,59.1199988 162.34625,59.36 C162.946253,59.6000012 163.521247,59.8449988 164.07125,60.095 C164.621253,60.3450013 165.106248,60.6449983 165.52625,60.995 C165.946252,61.3450018 166.286249,61.7649976 166.54625,62.255 C166.806251,62.7450025 166.93625,63.3599963 166.93625,64.1 C166.93625,65.500007 166.411255,66.5599964 165.36125,67.28 C164.311245,68.0000036 162.876259,68.36 161.05625,68.36 C159.696243,68.36 158.656254,68.2450012 157.93625,68.015 C157.216246,67.7849988 156.736251,67.6100006 156.49625,67.49 L157.00625,65.72 C157.06625,65.7600002 157.196249,65.8249996 157.39625,65.915 C157.596251,66.0050004 157.866248,66.1049995 158.20625,66.215 C158.546252,66.3250005 158.951248,66.4199996 159.42125,66.5 C159.891252,66.5800004 160.436247,66.62 161.05625,66.62 Z" id="designs" fill="#2B2B2B" fill-rule="nonzero"></path>
            </g>
        </g>
    </g>
</svg>