<?xml version="1.0" encoding="UTF-8"?>
<svg width="40px" height="40px" viewBox="0 0 40 40" version="1.1" xmlns="http://www.w3.org/2000/svg" xmlns:xlink="http://www.w3.org/1999/xlink">
    <!-- Generator: Sketch 53.2 (72643) - https://sketchapp.com -->
    <title>mobile</title>
    <desc>Created with Sketch.</desc>
    <g id="Page-1" stroke="none" stroke-width="1" fill="none" fill-rule="evenodd">
        <g id="inhouse-LP-Copy-2" transform="translate(-599.000000, -2703.000000)">
            <g id="mobile" transform="translate(599.000000, 2703.000000)">
                <circle id="Oval" fill="#2B2B2B" cx="20" cy="20" r="20"></circle>
                <g id="flaticon1573723720-svg" transform="translate(11.000000, 7.000000)" fill="#FFFFFF" fill-rule="nonzero">
                    <path d="M14.494,0 L2.948,0 C1.843,0 0.951,0.896 0.951,1.999 L0.951,25.445 C0.951,26.547 1.843,27.442 2.948,27.442 L14.494,27.442 C15.597,27.442 16.491,26.547 16.491,25.445 L16.491,1.999 C16.491,0.896 15.597,0 14.494,0 Z M5.872,1.214 L11.572,1.214 C11.716,1.214 11.833,1.429 11.833,1.695 C11.833,1.961 11.716,2.177 11.572,2.177 L5.872,2.177 C5.727,2.177 5.612,1.961 5.612,1.695 C5.612,1.429 5.727,1.214 5.872,1.214 Z M8.722,25.469 C8.019,25.469 7.447,24.897 7.447,24.193 C7.447,23.489 8.019,22.919 8.722,22.919 C9.423,22.919 9.995,23.489 9.995,24.193 C9.995,24.897 9.423,25.469 8.722,25.469 Z M14.995,21.1 L2.448,21.1 L2.448,3.373 L14.995,3.373 L14.995,21.1 Z" id="Shape"></path>
                </g>
            </g>
        </g>
    </g>
</svg>