<?xml version="1.0" encoding="UTF-8"?>
<svg width="40px" height="40px" viewBox="0 0 40 40" version="1.1" xmlns="http://www.w3.org/2000/svg" xmlns:xlink="http://www.w3.org/1999/xlink">
    <!-- Generator: Sketch 53.2 (72643) - https://sketchapp.com -->
    <title>Monitor</title>
    <desc>Created with Sketch.</desc>
    <g id="RMdesigns" stroke="none" stroke-width="1" fill="none" fill-rule="evenodd">
        <g id="inhouse-LP-Copy-2" transform="translate(-556.000000, -2703.000000)">
            <g id="Monitor" transform="translate(556.000000, 2703.000000)">
                <circle id="Oval" fill="#2B2B2B" cx="20" cy="20" r="20"></circle>
                <g id="flaticon1573722432-svg" transform="translate(8.000000, 9.600000)">
                    <path d="M23.3770492,0.586754098 C22.9860109,0.195715847 22.5161093,0 21.9667322,0 L1.99698361,0 C1.44782514,0 0.977836066,0.195715847 0.586535519,0.586754098 C0.195453552,0.977923497 0,1.44786885 0,1.99707104 L0,15.5766557 C0,16.1259891 0.195453552,16.5958907 0.586535519,16.9871475 C0.977836066,17.3781858 1.44782514,17.5735519 1.99698361,17.5735519 L8.78684153,17.5735519 C8.78684153,17.8896612 8.72021858,18.2144699 8.58706011,18.5470601 C8.45398907,18.8799126 8.3208306,19.1710164 8.18767213,19.4205464 C8.05468852,19.6703825 7.98810929,19.8532022 7.98810929,19.9696175 C7.98810929,20.1859235 8.06710383,20.3735519 8.22522404,20.531235 C8.38325683,20.6895301 8.5704918,20.7688306 8.78684153,20.7688306 L15.1771803,20.7688306 C15.3935301,20.7688306 15.5808087,20.6895738 15.7388415,20.531235 C15.8970929,20.3735956 15.9760874,20.1859672 15.9760874,19.9696175 C15.9760874,19.8617268 15.909377,19.680612 15.7762623,19.4268852 C15.6431038,19.1732896 15.5099454,18.8775519 15.3769617,18.5408962 C15.2438033,18.203847 15.177224,17.8814426 15.177224,17.5735519 L21.967082,17.5735519 C22.516153,17.5735519 22.9860546,17.3781858 23.3770929,16.9871475 C23.768306,16.5959344 23.963847,16.1260328 23.963847,15.5766557 L23.963847,1.99707104 C23.9639781,1.44786885 23.7682623,0.977923497 23.3770492,0.586754098 Z" id="Shape" fill="#FFFFFF" fill-rule="nonzero"></path>
                    <rect id="Rectangle" fill="#2B2B2B" x="2" y="2" width="20" height="12" rx="2"></rect>
                </g>
            </g>
        </g>
    </g>
</svg>