<?xml version="1.0" encoding="UTF-8"?>
<svg width="40px" height="40px" viewBox="0 0 40 40" version="1.1" xmlns="http://www.w3.org/2000/svg" xmlns:xlink="http://www.w3.org/1999/xlink">
    <!-- Generator: Sketch 53.2 (72643) - https://sketchapp.com -->
    <title>paw</title>
    <desc>Created with Sketch.</desc>
    <g id="Page-1" stroke="none" stroke-width="1" fill="none" fill-rule="evenodd">
        <g id="inhouse-LP-Copy-2" transform="translate(-596.000000, -2502.000000)">
            <g id="paw" transform="translate(596.000000, 2502.000000)">
                <circle id="Oval" fill="#2B2B2B" cx="20" cy="20" r="20"></circle>
                <g id="flaticon1573723778-svg" transform="translate(5.000000, 7.000000)" fill="#FFFFFF" fill-rule="nonzero">
                    <path d="M20.0223867,13.9971674 C18.6750731,11.8953308 16.3804368,10.6403052 13.8840918,10.6403052 C11.3877467,10.6403052 9.09311041,11.8953308 7.7460252,13.9971674 L4.49949743,19.0618147 C3.96084614,19.9020011 3.71230813,20.8728527 3.78061041,21.8686038 C3.84891263,22.8645833 4.22788743,23.7920322 4.87641632,24.5513523 C5.52540205,25.3099872 6.38294959,25.8285362 7.35631398,26.0510325 C8.32967836,26.2735289 9.32748538,26.1784996 10.2416849,25.7766813 L10.3029057,25.7494974 C12.6032529,24.7585435 15.2318622,24.7676809 17.5262701,25.7766813 C18.1181469,26.0368695 18.7452029,26.1684485 19.3779696,26.1684485 C19.7219938,26.1684485 20.0680738,26.129386 20.4109558,26.0512609 C21.3843202,25.828993 22.2418677,25.3104441 22.8910819,24.5515808 C23.5398392,23.7929459 23.9190424,22.8652687 23.9875731,21.8690607 C24.0561038,20.8728527 23.8075658,19.9022295 23.2689145,19.0615863 L20.0223867,13.9971674 Z" id="Path"></path>
                    <path d="M5.37394918,13.9905427 C6.3397752,13.6195632 7.07351058,12.8412829 7.4399214,11.7989309 C7.78874269,10.8070632 7.76018825,9.68727158 7.35928363,8.64560491 C6.95815058,7.60462351 6.22852702,6.75484281 5.30473322,6.25251281 C4.33433848,5.72505485 3.26822918,5.63916304 2.30400222,6.01082784 C0.364126433,6.75667029 -0.526087368,9.15387427 0.319809942,11.3557657 C0.99552269,13.1083242 2.57150035,14.2146381 4.16483918,14.2146381 C4.5716831,14.2146381 4.97966924,14.1424525 5.37394918,13.9905427 Z" id="Path"></path>
                    <path d="M11.6732913,10.0226151 C14.0983644,10.0226151 16.0713633,7.77480813 16.0713633,5.01187865 C16.0713633,2.24826386 14.0983644,0 11.6732913,0 C9.24844667,0 7.27567614,2.24826386 7.27567614,5.01187865 C7.27567614,7.77480813 9.24844667,10.0226151 11.6732913,10.0226151 Z" id="Path"></path>
                    <path d="M19.2687774,11.253655 L19.2690058,11.253655 C19.6420413,11.3774671 20.0226151,11.4366319 20.4015899,11.4366319 C22.1701389,11.4366319 23.893686,10.149397 24.5513523,8.17114398 C24.9300987,7.03239216 24.9051992,5.82830772 24.4812226,4.78093018 C24.0376005,3.68443895 23.2154605,2.88856906 22.166027,2.53974784 C21.1163651,2.19092655 19.9812683,2.33644006 18.9695267,2.94910456 C18.0030153,3.53435673 17.2624269,4.4839638 16.8841374,5.62271567 C16.0857547,8.02494515 17.155519,10.5509868 19.2687774,11.253655 L19.2687774,11.253655 Z" id="Path"></path>
                    <path d="M28.5307018,10.6688596 L28.5300164,10.6681743 C26.8576389,9.43279421 24.3564967,9.96824743 22.9541301,11.862436 C21.5531342,13.7575384 21.772204,16.3052814 23.4420687,17.5415753 C24.0510782,17.9927357 24.7706506,18.208379 25.5071272,18.208379 C26.7907073,18.208379 28.1261422,17.5532255 29.0188688,16.3484558 C30.4196363,14.4533535 30.200795,11.9056104 28.5307018,10.6688596 Z" id="Path"></path>
                </g>
            </g>
        </g>
    </g>
</svg>