<?xml version="1.0" encoding="UTF-8"?>
<svg width="40px" height="40px" viewBox="0 0 40 40" version="1.1" xmlns="http://www.w3.org/2000/svg" xmlns:xlink="http://www.w3.org/1999/xlink">
    <!-- Generator: Sketch 53.2 (72643) - https://sketchapp.com -->
    <title>percantage</title>
    <desc>Created with Sketch.</desc>
    <g id="Page-1" stroke="none" stroke-width="1" fill="none" fill-rule="evenodd">
        <g id="inhouse-LP-Copy-2" transform="translate(-235.000000, -2502.000000)">
            <g id="percantage" transform="translate(235.000000, 2502.000000)">
                <circle id="Oval" fill="#2B2B2B" cx="20" cy="20" r="20"></circle>
                <g id="flaticon1573722268-svg" transform="translate(8.000000, 8.000000)" fill-rule="nonzero">
                    <circle id="Oval" fill="#000000" cx="8.75815" cy="10.12815" r="1.02"></circle>
                    <circle id="Oval" fill="#000000" cx="15.23815" cy="14.26815" r="1.02"></circle>
                    <path d="M23.64815,13.54815 L23.27815,13.04315 C22.87815,12.49315 22.86815,11.74815 23.26315,11.18815 L23.62315,10.67815 C24.17315,9.89815 23.91815,8.81315 23.07315,8.35815 L22.52315,8.06315 C21.92315,7.74315 21.59315,7.07315 21.70815,6.39815 L21.81315,5.78315 C21.97315,4.84315 21.26815,3.97315 20.31315,3.93315 L19.68815,3.90815 C19.00815,3.87815 18.41815,3.41815 18.22815,2.76315 L18.05315,2.16315 C17.78815,1.24315 16.77815,0.76815 15.89815,1.14815 L15.32315,1.39315 C14.69815,1.66315 13.96815,1.50315 13.51315,0.99315 L13.09815,0.52815 C12.46315,-0.18185 11.34815,-0.17685 10.71815,0.54815 L10.30815,1.01815 C9.85815,1.53315 9.13315,1.70315 8.50315,1.44315 L7.92315,1.20315 C7.03815,0.83815 6.03815,1.33315 5.78315,2.25315 L5.61815,2.85815 C5.43815,3.51815 4.85815,3.98815 4.17815,4.02315 L3.55315,4.05815 C2.59815,4.11315 1.90815,4.99315 2.08315,5.93315 L2.19815,6.54815 C2.32315,7.21815 2.00315,7.89315 1.40815,8.22315 L0.86315,8.52815 C0.02815,8.99315 -0.21185,10.08315 0.35315,10.85315 L0.72315,11.35815 C1.12315,11.90815 1.13315,12.65315 0.73815,13.21315 L0.37815,13.72315 C-0.17185,14.50315 0.08315,15.58815 0.92815,16.04315 L1.47815,16.33815 C2.07815,16.65815 2.40815,17.32815 2.29315,18.00315 L2.18815,18.61815 C2.02815,19.55815 2.73315,20.42815 3.68815,20.46815 L4.31315,20.49315 C4.99315,20.52315 5.58315,20.98315 5.77315,21.63815 L5.94815,22.23815 C6.21315,23.15815 7.22315,23.63315 8.10315,23.25315 L8.67815,23.00815 C9.30315,22.73815 10.03315,22.89815 10.48815,23.40815 L10.90315,23.87315 C11.54315,24.58315 12.65815,24.57815 13.28315,23.85315 L13.69315,23.38315 C14.14315,22.86815 14.86815,22.69815 15.49815,22.95815 L16.07815,23.19815 C16.96315,23.56315 17.96315,23.06815 18.21815,22.14815 L18.38315,21.54315 C18.56315,20.88315 19.14315,20.41315 19.82315,20.37815 L20.44815,20.34315 C21.40315,20.28815 22.09315,19.40815 21.91815,18.46815 L21.80315,17.85315 C21.67815,17.18315 21.99815,16.50815 22.59315,16.17815 L23.13815,15.87315 C23.97315,15.41315 24.21315,14.32315 23.64815,13.54815 Z M6.29315,10.12815 C6.29315,8.76815 7.39315,7.66815 8.75315,7.66815 C10.11315,7.66815 11.21315,8.76815 11.21315,10.12815 C11.21315,11.48815 10.11315,12.58815 8.75315,12.58815 C7.39315,12.58815 6.29315,11.48315 6.29315,10.12815 Z M9.22815,16.47315 C9.01815,16.72815 8.63815,16.76315 8.38315,16.55315 L8.38315,16.55315 C8.12815,16.34315 8.09315,15.96315 8.30315,15.70815 L14.75815,7.93315 C14.96815,7.67815 15.34815,7.64315 15.60315,7.85315 C15.85815,8.06315 15.89315,8.44315 15.68315,8.69815 L9.22815,16.47315 Z M15.23815,16.72815 C13.87815,16.72815 12.77815,15.62815 12.77815,14.26815 C12.77815,12.90815 13.87815,11.80815 15.23815,11.80815 C16.59815,11.80815 17.69815,12.90815 17.69815,14.26815 C17.69815,15.62815 16.59815,16.72815 15.23815,16.72815 Z" id="Shape" fill="#FFFFFF"></path>
                </g>
            </g>
        </g>
    </g>
</svg>