<?xml version="1.0" encoding="UTF-8"?>
<svg width="40px" height="40px" viewBox="0 0 40 40" version="1.1" xmlns="http://www.w3.org/2000/svg" xmlns:xlink="http://www.w3.org/1999/xlink">
    <!-- Generator: Sketch 53.2 (72643) - https://sketchapp.com -->
    <title>ps</title>
    <desc>Created with Sketch.</desc>
    <g id="Page-1" stroke="none" stroke-width="1" fill="none" fill-rule="evenodd">
        <g id="inhouse-LP-Copy-2" transform="translate(-553.000000, -2301.000000)">
            <g id="ps" transform="translate(553.000000, 2301.000000)">
                <circle id="Oval" fill="#2B2B2B" cx="20" cy="20" r="20"></circle>
                <g id="flaticon1573721695-svg" transform="translate(8.000000, 10.400000)" fill="#FFFFFF" fill-rule="nonzero">
                    <path d="M4.44718033,18.0986557 L4.44718033,12.0628525 C4.76911475,12.0942295 5.14878689,12.1105574 5.56318033,12.1105574 C8.08868852,12.1105574 10.1306557,11.4443607 11.4690492,10.1832787 C12.565377,9.1417377 13.1694098,7.59 13.1694098,5.81409836 C13.1694098,4.0892459 12.4480328,2.52963934 11.1914754,1.536 C9.95616393,0.547967213 8.14091803,0.0675737705 5.64196721,0.0675737705 C3.4772459,0.0675737705 1.64803279,0.192098361 0.204688525,0.437803279 C0.0864590164,0.457770492 0,0.560262295 0,0.680163934 L0,18.0986557 C0,18.2344918 0.110065574,18.3445574 0.245901639,18.3445574 L4.20127869,18.3445574 C4.33711475,18.3445574 4.44718033,18.2344918 4.44718033,18.0986557 Z M4.44718033,8.49236066 L4.44718033,3.67918033 C4.68865574,3.63285246 5.14219672,3.57157377 5.85127869,3.57157377 C7.67596721,3.57157377 8.72242623,4.42711475 8.72242623,5.9187541 C8.72242623,7.56885246 7.53177049,8.55413115 5.53701639,8.55413115 C5.0584918,8.55413115 4.71767213,8.5352459 4.44718033,8.49236066 Z" id="XMLID_311_"></path>
                    <path d="M20.3370492,10.0347541 C18.7074098,9.46445902 18.4324918,9.19288525 18.4324918,8.80003279 C18.4324918,8.10236066 19.2300984,7.99819672 19.7057705,7.99819672 C20.7157377,7.99819672 21.7692787,8.37708197 22.3645574,8.70147541 C22.4312459,8.73777049 22.5105246,8.74131148 22.5802623,8.71111475 C22.6496066,8.68081967 22.7014426,8.62022951 22.7203279,8.54685246 L23.4276393,5.79678689 C23.456459,5.68455738 23.4030492,5.56740984 23.2994754,5.51567213 C22.5652131,5.14859016 21.2012459,4.75622951 19.5746557,4.75622951 C16.3608197,4.75622951 14.1162295,6.58072131 14.1162295,9.18885246 C14.0944918,10.4613443 14.7375738,12.2035082 17.9252459,13.2765246 C19.4736393,13.7927213 19.6431148,14.0609508 19.6431148,14.5101639 C19.6431148,14.7149508 19.6431148,15.3381639 18.1864918,15.3381639 C17.0952787,15.3381639 15.6220328,14.853541 14.8827541,14.404623 C14.8156721,14.364 14.7336393,14.3576066 14.6612459,14.3875082 C14.5890492,14.4173115 14.5352459,14.4797705 14.5163607,14.5557049 L13.8092459,17.410918 C13.7822951,17.5198033 13.832459,17.6330164 13.9310164,17.6863279 C15.0127869,18.2709836 16.5639344,18.6063934 18.1864918,18.6063934 C21.763377,18.6063934 23.9853443,16.9263934 23.9853443,14.2187213 C23.9570164,12.183541 22.831377,10.8930492 20.3370492,10.0347541 Z" id="XMLID_334_"></path>
                </g>
            </g>
        </g>
    </g>
</svg>