<?xml version="1.0" encoding="UTF-8"?>
<svg width="104px" height="123px" viewBox="0 0 104 123" version="1.1" xmlns="http://www.w3.org/2000/svg" xmlns:xlink="http://www.w3.org/1999/xlink">
    <!-- Generator: Sketch 53.2 (72643) - https://sketchapp.com -->
    <title>flaticon1574405609-svg</title>
    <desc>Created with Sketch.</desc>
    <g id="Page-1" stroke="none" stroke-width="1" fill="none" fill-rule="evenodd">
        <g id="OnBoard-step-2" transform="translate(-653.000000, -306.000000)" fill-rule="nonzero">
            <g id="flaticon1574405609-svg" transform="translate(653.000000, 306.000000)">
                <path d="M51.9990683,38.2323875 C39.1677179,38.2323875 28.7291427,48.7249635 28.7291427,61.6217561 C28.7291427,74.5194855 39.1677179,85.0120614 51.9990683,85.0120614 C64.8294868,85.0120614 75.2680619,74.5194855 75.2680619,61.6217561 C75.2680619,48.7249635 64.8294868,38.2323875 51.9990683,38.2323875 Z M65.8143634,57.2169911 L49.1441371,73.9734559 C48.4443807,74.676832 47.5265912,75.0289884 46.6097334,75.0289884 C45.6928756,75.0289884 44.7760178,74.6777688 44.0762615,73.9734559 L37.705777,67.5700155 C36.3062643,66.1641996 36.3062643,63.883612 37.705777,62.4768595 C39.1043578,61.0701068 41.3732082,61.0701068 42.7727207,62.4768595 L46.6097334,66.3337216 L60.7474197,52.1238349 C62.1460005,50.7170825 64.4148509,50.7170825 65.8143634,52.1238349 C67.2138761,53.5296508 67.2138761,55.8102384 65.8143634,57.2169911 Z" id="Shape" fill="#FBFE56"></path>
                <path d="M103.877939,33.5475832 L103.874212,33.4520513 C103.821101,32.2728891 103.785694,31.0253565 103.764263,29.6373355 C103.664564,22.8686266 98.3115683,17.2697141 91.5767632,16.8913332 C77.5350487,16.103664 66.6725201,11.5012792 57.3911983,2.40796333 L57.3119982,2.33209966 C54.2846904,-0.45799062 49.718105,-0.45799062 46.6898652,2.33209966 L46.6106651,2.40796333 C37.3293435,11.5012792 26.4668147,16.103664 12.4251004,16.8922697 C5.69122706,17.2697141 0.337299193,22.8686266 0.237600404,29.6382721 C0.217101431,31.016927 0.180762495,32.2644599 0.12765189,33.4520513 L0.122061413,33.6740222 C-0.150945982,48.0665433 -0.490109064,65.9787556 5.47133028,82.2369563 C8.74928338,91.1776088 13.7137329,98.9494014 20.2258458,105.337856 C27.6427036,112.613259 37.3572964,118.389186 49.0994123,122.504546 C49.4814363,122.638478 49.8783688,122.747122 50.2827551,122.828605 C50.8529959,122.942868 51.4269638,123 52.0009317,123 C52.5748996,123 53.1497992,122.942868 53.7191083,122.828605 C54.1234949,122.747122 54.5232225,122.637541 54.9071101,122.502673 C66.6352495,118.37982 76.3395928,112.601083 83.7499284,105.326617 C90.2592459,98.9362894 95.2236955,91.1626234 98.5044439,82.2200978 C104.488245,65.9131944 104.150014,47.9672652 103.877939,33.5475832 Z M51.9990683,92.2153464 C35.2160981,92.2153464 21.5629302,78.491548 21.5629302,61.6217561 C21.5629302,44.7519647 35.2160981,31.0281661 51.9990683,31.0281661 C68.7811065,31.0281661 82.4352064,44.7519647 82.4352064,61.6217561 C82.4352064,78.491548 68.7811065,92.2153464 51.9990683,92.2153464 Z" id="Shape" fill="#FFFFFF"></path>
            </g>
        </g>
    </g>
</svg>