<?xml version="1.0" encoding="UTF-8"?>
<svg width="40px" height="40px" viewBox="0 0 40 40" version="1.1" xmlns="http://www.w3.org/2000/svg" xmlns:xlink="http://www.w3.org/1999/xlink">
    <!-- Generator: Sketch 53.2 (72643) - https://sketchapp.com -->
    <title>tshirt</title>
    <desc>Created with Sketch.</desc>
    <g id="Page-1" stroke="none" stroke-width="1" fill="none" fill-rule="evenodd">
        <g id="inhouse-LP-Copy-2" transform="translate(-192.000000, -2502.000000)">
            <g id="tshirt" transform="translate(192.000000, 2502.000000)">
                <circle id="Oval" fill="#2B2B2B" cx="20" cy="20" r="20"></circle>
                <g id="flaticon1573722115-svg" transform="translate(8.000000, 9.600000)" fill="#FFFFFF" fill-rule="nonzero">
                    <path d="M23.9317297,3.23018919 C23.8824324,3.09186486 23.7798649,2.97810811 23.6462432,2.91616216 L19.0778919,0.807243243 C18.1061351,0.478054054 17.1161351,0.218027027 16.1164865,0.027972973 C16.0812973,0.0210810811 16.0462703,0.0177567568 16.0117297,0.0177567568 C15.7642703,0.0177567568 15.5426757,0.188594595 15.4875405,0.439135135 C15.1225135,2.04616216 13.6999459,3.24932432 11.9807027,3.24932432 C10.2615405,3.24932432 8.83889189,2.04624324 8.47394595,0.439135135 C8.41816216,0.188594595 8.19697297,0.0177567568 7.94967568,0.0177567568 C7.91513514,0.0177567568 7.88010811,0.0210810811 7.84491892,0.027972973 C6.84535135,0.218027027 5.85535135,0.478054054 4.88205405,0.807243243 L0.315324324,2.91608108 C0.180891892,2.97802703 0.0775945946,3.09178378 0.0306486486,3.23010811 C-0.0179189189,3.37005405 -0.00916216216,3.52110811 0.0592702703,3.65310811 L2.04251351,7.56705405 C2.13535135,7.75281081 2.32418919,7.8642973 2.52397297,7.8642973 C2.57554054,7.8642973 2.62783784,7.85683784 2.67940541,7.84135135 L4.88213514,7.18848649 L4.88213514,20.3211892 C4.88213514,20.6194054 5.12545946,20.8626486 5.42448649,20.8626486 L18.5371622,20.8626486 C18.8353784,20.8626486 19.077973,20.6193243 19.077973,20.3211892 L19.077973,7.18864865 L21.2822432,7.84151351 C21.3338108,7.857 21.386027,7.86445946 21.4375135,7.86445946 C21.6368919,7.86445946 21.825,7.75297297 21.9191351,7.56721622 L23.9031081,3.65327027 C23.9699189,3.52118919 23.9794865,3.37013514 23.9317297,3.23018919 Z" id="Path"></path>
                </g>
            </g>
        </g>
    </g>
</svg>