<?xml version="1.0" encoding="UTF-8"?>
<svg width="40px" height="40px" viewBox="0 0 40 40" version="1.1" xmlns="http://www.w3.org/2000/svg" xmlns:xlink="http://www.w3.org/1999/xlink">
    <!-- Generator: Sketch 53.2 (72643) - https://sketchapp.com -->
    <title>yt</title>
    <desc>Created with Sketch.</desc>
    <g id="Page-1" stroke="none" stroke-width="1" fill="none" fill-rule="evenodd">
        <g id="inhouse-LP-Copy-2" transform="translate(-408.000000, -2070.000000)">
            <g id="yt" transform="translate(408.000000, 2070.000000)">
                <circle id="Oval-Copy" fill="#2B2B2B" cx="20" cy="20" r="20"></circle>
                <g id="flaticon1573716976-svg" transform="translate(9.600000, 8.000000)" fill="#FFFFFF" fill-rule="nonzero">
                    <path d="M17.0504,17.5552 L15.7333333,17.5552 L15.7394667,16.7901333 C15.7394667,16.4501333 16.0186667,16.172 16.3597333,16.172 L16.4437333,16.172 C16.7856,16.172 17.0656,16.4501333 17.0656,16.7901333 L17.0504,17.5552 Z M12.1101333,15.9157333 C11.776,15.9157333 11.5026667,16.1402667 11.5026667,16.4152 L11.5026667,20.136 C11.5026667,20.4104 11.776,20.6344 12.1101333,20.6344 C12.4456,20.6344 12.7192,20.4104 12.7192,20.136 L12.7192,16.4152 C12.7192,16.14 12.4456,15.9157333 12.1101333,15.9157333 Z M20.1333333,13.8344 L20.1333333,20.9128 C20.1333333,22.6106667 18.6610667,24 16.8613333,24 L3.4056,24 C1.60533333,24 0.133333333,22.6106667 0.133333333,20.9128 L0.133333333,13.8344 C0.133333333,12.1365333 1.60533333,10.7469333 3.4056,10.7469333 L16.8613333,10.7469333 C18.6610667,10.7469333 20.1333333,12.1365333 20.1333333,13.8344 Z M4.3032,21.6813333 L4.30213333,14.2250667 L5.97013333,14.2256 L5.97013333,13.1208 L1.52373333,13.1141333 L1.52373333,14.2002667 L2.91173333,14.2042667 L2.91173333,21.6813333 L4.3032,21.6813333 Z M9.3032,15.3357333 L7.91253333,15.3357333 L7.91253333,19.3173333 C7.91253333,19.8933333 7.94746667,20.1813333 7.9104,20.2829333 C7.79733333,20.5917333 7.28906667,20.9197333 7.09093333,20.3162667 C7.05733333,20.2106667 7.08693333,19.892 7.0864,19.3448 L7.0808,15.3357333 L5.69786667,15.3357333 L5.70213333,19.2818667 C5.7032,19.8866667 5.68853333,20.3376 5.70693333,20.5429333 C5.7408,20.9048 5.7288,21.3266667 6.06453333,21.5677333 C6.69013333,22.0184 7.88933333,21.5005333 8.18933333,20.8562667 L8.18666667,21.6784 L9.30346667,21.6797333 L9.3032,15.3357333 L9.3032,15.3357333 Z M13.752,19.8952 L13.7490667,16.5813333 C13.748,15.3184 12.8032,14.5621333 11.5208,15.584 L11.5264,13.1202667 L10.1373333,13.1224 L10.1306667,21.6264 L11.2730667,21.6098667 L11.3770667,21.0802667 C12.8365333,22.4192 13.7541333,21.5016 13.752,19.8952 Z M18.1042667,19.456 L17.0616,19.4616 C17.0610667,19.5029333 17.0594667,19.5506667 17.0589333,19.6026667 L17.0589333,20.1845333 C17.0589333,20.496 16.8016,20.7496 16.4890667,20.7496 L16.2848,20.7496 C15.9717333,20.7496 15.7144,20.496 15.7144,20.1845333 L15.7144,20.12 L15.7144,19.48 L15.7144,18.6541333 L18.1021333,18.6541333 L18.1021333,17.7554667 C18.1021333,17.0986667 18.0853333,16.4421333 18.0309333,16.0666667 C17.86,14.8789333 16.1928,14.6904 15.3506667,15.2984 C15.0864,15.4882667 14.8845333,15.7424 14.7672,16.0837333 C14.6488,16.4253333 14.5898667,16.892 14.5898667,17.4848 L14.5898667,19.4608 C14.5904,22.7456 18.5802667,22.2813333 18.1042667,19.456 Z M12.7554667,8.72853333 C12.8272,8.90293333 12.9386667,9.04426667 13.0898667,9.15093333 C13.2392,9.256 13.4301333,9.3088 13.6589333,9.3088 C13.8594667,9.3088 14.0370667,9.25466667 14.1917333,9.14293333 C14.3458667,9.03173333 14.4757333,8.8656 14.5818667,8.644 L14.5554667,9.1896 L16.1056,9.1896 L16.1056,2.59733333 L14.8853333,2.59733333 L14.8853333,7.728 C14.8853333,8.00586667 14.6565333,8.23333333 14.3768,8.23333333 C14.0986667,8.23333333 13.8690667,8.00586667 13.8690667,7.728 L13.8690667,2.59733333 L12.5954667,2.59733333 L12.5954667,7.04373333 C12.5954667,7.61013333 12.6058667,7.98773333 12.6226667,8.1792 C12.64,8.36933333 12.6837333,8.55173333 12.7554667,8.72853333 Z M8.05786667,5.00533333 C8.05786667,4.37253333 8.11066667,3.8784 8.21546667,3.52213333 C8.32106667,3.1672 8.51066667,2.88186667 8.78533333,2.66666667 C9.0592,2.4504 9.40986667,2.34213333 9.83626667,2.34213333 C10.1949333,2.34213333 10.5021333,2.41253333 10.7586667,2.5504 C11.0165333,2.68906667 11.2154667,2.86906667 11.3533333,3.0912 C11.4938667,3.31413333 11.5893333,3.5432 11.6402667,3.7776 C11.6922667,4.0152 11.7178667,4.3736 11.7178667,4.85706667 L11.7178667,6.52426667 C11.7178667,7.13573333 11.6933333,7.5856 11.6456,7.8712 C11.5984,8.1576 11.4970667,8.4232 11.34,8.67226667 C11.1853333,8.91866667 10.9856,9.10293333 10.7434667,9.22053333 C10.4986667,9.3392 10.2186667,9.39733333 9.9024,9.39733333 C9.54906667,9.39733333 9.25146667,9.34853333 9.00613333,9.24666667 C8.76,9.14533333 8.56986667,8.99253333 8.4344,8.7896 C8.2976,8.5864 8.20133333,8.33893333 8.1432,8.0504 C8.0848,7.76213333 8.05706667,7.32853333 8.05706667,6.75066667 L8.05786667,5.00533333 L8.05786667,5.00533333 Z M9.272,7.624 C9.272,7.99733333 9.54986667,8.30213333 9.88826667,8.30213333 C10.2269333,8.30213333 10.5037333,7.99733333 10.5037333,7.624 L10.5037333,4.11466667 C10.5037333,3.74186667 10.2269333,3.43706667 9.88826667,3.43706667 C9.54986667,3.43706667 9.272,3.74186667 9.272,4.11466667 L9.272,7.624 Z M4.98186667,9.396 L6.44426667,9.396 L6.44586667,4.34 L8.17386667,0.0088 L6.5744,0.0088 L5.65573333,3.22586667 L4.724,0 L3.14106667,0 L4.97946667,4.3424 L4.98186667,9.396 Z" id="YouTube"></path>
                </g>
            </g>
        </g>
    </g>
</svg>